<?xml version="1.0" encoding="utf-8"?>
<!-- Generator: Adobe Illustrator 24.0.2, SVG Export Plug-In . SVG Version: 6.00 Build 0)  -->
<svg version="1.1" id="web_development" xmlns="http://www.w3.org/2000/svg" xmlns:xlink="http://www.w3.org/1999/xlink" x="0px"
	 y="0px" viewBox="0 0 600 400" style="enable-background:new 0 0 600 400;" xml:space="preserve">
<style type="text/css">
	.st0{fill:url(#SVGID_1_);}
	.st1{fill:#6FCEF6;}
	.st2{fill:#197DE5;}
	.st3{fill:#001B8D;}
	.st4{fill:#31A8FF;}
	.st5{fill:#002D95;}
	.st6{fill:#F4F4F4;}
	.st7{opacity:0.88;fill:#197DE5;}
	.st8{fill:#58FFFE;}
	.st9{fill:#27D9F9;}
	.st10{fill:#0041AE;}
	.st11{fill:#A92FE5;}
	.st12{fill:#D49AF0;}
	.st13{fill:#FFFFFF;}
	.st14{fill:url(#SVGID_2_);}
	.st15{fill:url(#SVGID_3_);}
	.st16{fill:url(#SVGID_4_);}
	.st17{opacity:0.5;fill:#58FFFE;}
	.st18{fill:#FFC5F0;}
	.st19{fill:url(#SVGID_5_);}
	.st20{fill:#00379F;}
	.st21{fill:url(#SVGID_6_);}
	.st22{fill:url(#SVGID_7_);}
	.st23{fill:url(#SVGID_8_);}
	.st24{fill:url(#SVGID_9_);}
	.st25{fill:url(#SVGID_10_);}
</style>
<g>
	<g>
		<g>
			<linearGradient id="SVGID_1_" gradientUnits="userSpaceOnUse" x1="42.1071" y1="202.2158" x2="63.8097" y2="199.9348">
				<stop  offset="0" style="stop-color:#0056E5"/>
				<stop  offset="0.0712" style="stop-color:#136EE9"/>
				<stop  offset="0.202" style="stop-color:#3293F0"/>
				<stop  offset="0.3389" style="stop-color:#4BB2F5"/>
				<stop  offset="0.4814" style="stop-color:#5ECAFA"/>
				<stop  offset="0.6321" style="stop-color:#6CDBFD"/>
				<stop  offset="0.7965" style="stop-color:#74E5FE"/>
				<stop  offset="1" style="stop-color:#77E8FF"/>
			</linearGradient>
			<path class="st0" d="M46.89,38.95c-7.58,0.76-18.73,8.29-19.31,16.84l30.19,295.4c2.71,9.8,15.25,10.48,22.1,9.81L46.89,38.95z"
				/>
			<path class="st1" d="M216.97,349.26L81.19,360.96c-7.02,0.61-13.24-4.78-14.03-12.15L35.81,54.08
				C34.9,45.59,41.5,38.3,49.59,38.84l130.28,8.62c6.17,0.41,11.23,5.33,12.1,11.79l0.91,6.8l11.25,83.78l10.3,76.61l4.57,34.01
				l9.83,73.2C229.88,341.48,224.45,348.62,216.97,349.26z"/>
			<path class="st2" d="M214.57,332.65c-0.79,0.31-1.63,0.49-2.51,0.56l-129.49,9.05c-4.8,0.34-9-3.36-9.53-8.39L44.27,63.59
				c-0.22-2.04,0.2-3.99,1.07-5.64h0.01c1.58-3.02,4.71-5.05,8.3-4.87l124.02,6.36c4.31,0.22,7.85,3.63,8.46,8.13l34.24,254.86
				C220.97,326.96,218.43,331.16,214.57,332.65z"/>
			<path class="st3" d="M214.57,332.65c-0.79,0.31-1.63,0.49-2.51,0.56l-129.49,9.05c-4.8,0.34-9-3.36-9.53-8.39l-0.93-8.75
				L44.27,63.59c-0.22-2.04,0.2-3.99,1.07-5.64h0.01c1.09-0.43,2.28-0.63,3.53-0.57l124.02,6.36c4.3,0.22,7.85,3.63,8.46,8.13
				l32.81,244.2l1.43,10.67C215.88,328.87,215.48,330.92,214.57,332.65z"/>
		</g>
		<path class="st4" d="M77.16,45.19l0.03,0.21c0.12,0.8,0.87,1.42,1.79,1.46l42.14,1.8c1.08,0.05,1.99-0.71,1.99-1.67l0,0
			c0-0.89-0.79-1.62-1.8-1.67l-42.17-2.01C77.97,43.25,77.01,44.15,77.16,45.19z"/>
		<path class="st2" d="M54.41,79.02l8.55,70.96c0.49,4.04,3.74,7.07,7.6,7.08l105.7,0.46c4.71,0.02,8.33-4.38,7.64-9.28l-9.27-66.15
			c-0.48-3.41-3.18-5.98-6.45-6.13L61.48,70.94C57.26,70.74,53.88,74.6,54.41,79.02z"/>
		<path class="st2" d="M69.11,193.15l2.17,18.87c0.47,4.09,3.82,7.14,7.74,7.03l105.67-2.99c4.5-0.13,7.91-4.33,7.32-9.03
			l-2.03-16.2c-0.5-3.98-3.73-6.96-7.54-6.95l-105.81,0.32C72.08,184.22,68.56,188.41,69.11,193.15z"/>
		<path class="st5" d="M74.36,234.04l2.18,19c0.47,4.12,3.87,7.18,7.81,7.03L189.89,256c4.47-0.17,7.83-4.36,7.24-9.03l-2.24-17.86
			c-0.51-4.05-3.84-7.05-7.72-6.94L81.7,225.1C77.23,225.22,73.83,229.37,74.36,234.04z"/>
		<path class="st3" d="M159.96,137.47h-31.39c-1.6,0-2.94-1.25-3.14-2.92l-3.63-30.4c-0.24-2.05,1.32-3.84,3.28-3.75l31.56,1.46
			c1.54,0.07,2.81,1.3,3,2.92l3.45,28.94C163.34,135.71,161.87,137.47,159.96,137.47z"/>
		<g>
			<path class="st6" d="M82.6,241.5l0.38-0.01l0.26,3.24l2.03-0.03l0.03,0.33l-2.41,0.04L82.6,241.5z"/>
			<path class="st6" d="M85.44,243.68c-0.06-0.8,0.48-1.37,1.28-1.39c0.8-0.01,1.43,0.54,1.49,1.34c0.06,0.8-0.47,1.38-1.27,1.39
				C86.13,245.04,85.5,244.47,85.44,243.68z M87.83,243.64c-0.05-0.63-0.51-1.04-1.09-1.03c-0.58,0.01-0.98,0.44-0.93,1.06
				c0.05,0.63,0.52,1.04,1.1,1.03C87.48,244.69,87.88,244.27,87.83,243.64z"/>
			<path class="st6" d="M90.21,242.23l0.03,0.35c-0.03,0-0.06,0-0.09,0c-0.57,0.01-0.89,0.37-0.83,1.01l0.11,1.37l-0.37,0.01
				l-0.22-2.69l0.35-0.01l0.04,0.53C89.38,242.44,89.71,242.24,90.21,242.23z"/>
			<path class="st6" d="M93.34,243.66l-2.27,0.04c0.09,0.56,0.55,0.93,1.15,0.92c0.33-0.01,0.62-0.13,0.8-0.37l0.23,0.23
				c-0.22,0.29-0.58,0.45-1.01,0.46c-0.85,0.01-1.47-0.55-1.54-1.35c-0.07-0.8,0.45-1.38,1.22-1.39c0.76-0.01,1.36,0.54,1.43,1.35
				C93.34,243.58,93.34,243.62,93.34,243.66z M91.04,243.43l1.93-0.03c-0.09-0.53-0.51-0.89-1.04-0.88
				C91.4,242.53,91.05,242.9,91.04,243.43z"/>
			<path class="st6" d="M98.56,243.25l0.13,1.57l-0.37,0.01l-0.13-1.53c-0.05-0.57-0.36-0.86-0.85-0.85
				c-0.56,0.01-0.88,0.37-0.83,0.99l0.12,1.42l-0.37,0.01l-0.13-1.53c-0.05-0.57-0.36-0.86-0.86-0.85
				c-0.55,0.01-0.88,0.37-0.83,0.99l0.12,1.42l-0.37,0.01l-0.23-2.7l0.35-0.01l0.04,0.49c0.16-0.33,0.5-0.52,0.95-0.53
				c0.45-0.01,0.82,0.18,1.01,0.55c0.17-0.35,0.54-0.58,1.03-0.59C98.02,242.1,98.49,242.47,98.56,243.25z"/>
			<path class="st6" d="M100.66,241.22c-0.01-0.14,0.1-0.26,0.25-0.26c0.15,0,0.28,0.11,0.29,0.25c0.01,0.15-0.09,0.27-0.25,0.27
				C100.8,241.48,100.67,241.36,100.66,241.22z M100.82,242.07l0.37-0.01l0.23,2.71l-0.37,0.01L100.82,242.07z"/>
			<path class="st6" d="M105.08,243.36c0.07,0.83-0.46,1.39-1.23,1.41c-0.43,0.01-0.82-0.17-1.08-0.52l0.13,1.51l-0.37,0.01
				l-0.32-3.72l0.35-0.01l0.05,0.54c0.19-0.37,0.55-0.57,1-0.58C104.38,241.99,105.01,242.54,105.08,243.36z M104.72,243.36
				c-0.06-0.63-0.53-1.05-1.11-1.04c-0.58,0.01-0.98,0.45-0.92,1.08c0.06,0.63,0.53,1.05,1.11,1.04
				C104.37,244.43,104.77,244,104.72,243.36z"/>
			<path class="st6" d="M105.55,244.4l0.14-0.29c0.23,0.17,0.61,0.3,0.99,0.29c0.52-0.01,0.71-0.19,0.69-0.46
				c-0.06-0.71-1.78-0.12-1.87-1.2c-0.04-0.44,0.31-0.78,1.01-0.79c0.35-0.01,0.74,0.09,0.98,0.24l-0.13,0.3
				c-0.25-0.16-0.54-0.22-0.82-0.22c-0.49,0.01-0.69,0.2-0.67,0.46c0.06,0.73,1.78,0.15,1.87,1.2c0.04,0.47-0.34,0.78-1.05,0.79
				C106.24,244.73,105.79,244.59,105.55,244.4z"/>
			<path class="st6" d="M110.69,241.9l0.25,2.73l-0.35,0.01l-0.04-0.5c-0.16,0.34-0.5,0.53-0.93,0.54
				c-0.69,0.01-1.18-0.37-1.25-1.15l-0.14-1.58l0.37-0.01l0.14,1.55c0.05,0.58,0.38,0.87,0.9,0.86c0.57-0.01,0.89-0.38,0.84-1.01
				l-0.13-1.43L110.69,241.9z"/>
			<path class="st6" d="M116.32,242.96l0.15,1.59l-0.37,0.01l-0.14-1.55c-0.05-0.58-0.37-0.87-0.86-0.86
				c-0.56,0.01-0.88,0.38-0.82,1l0.13,1.44l-0.37,0.01l-0.14-1.55c-0.05-0.58-0.37-0.87-0.87-0.86c-0.55,0.01-0.88,0.38-0.82,1
				l0.13,1.43l-0.37,0.01l-0.25-2.73l0.35-0.01l0.05,0.5c0.16-0.33,0.5-0.53,0.95-0.54c0.45-0.01,0.82,0.18,1.02,0.56
				c0.16-0.36,0.53-0.59,1.02-0.6C115.77,241.79,116.24,242.17,116.32,242.96z"/>
			<path class="st6" d="M120.94,240.59l0.36,3.88l-0.35,0.01l-0.05-0.54c-0.19,0.38-0.55,0.58-1,0.59
				c-0.78,0.01-1.41-0.55-1.49-1.38c-0.08-0.83,0.45-1.4,1.22-1.42c0.43-0.01,0.82,0.17,1.08,0.53l-0.16-1.65L120.94,240.59z
				 M120.82,243.1c-0.06-0.64-0.53-1.06-1.11-1.05c-0.58,0.01-0.97,0.45-0.91,1.09c0.06,0.64,0.53,1.06,1.11,1.05
				C120.48,244.18,120.88,243.74,120.82,243.1z"/>
			<path class="st6" d="M121.93,243.08c-0.08-0.82,0.46-1.41,1.25-1.42c0.8-0.01,1.43,0.56,1.51,1.38c0.08,0.82-0.45,1.41-1.25,1.43
				C122.65,244.48,122.01,243.9,121.93,243.08z M124.32,243.04c-0.06-0.65-0.53-1.07-1.11-1.06c-0.58,0.01-0.97,0.45-0.91,1.09
				c0.06,0.64,0.54,1.07,1.12,1.06C124,244.13,124.39,243.69,124.32,243.04z"/>
			<path class="st6" d="M125.21,240.51l0.37-0.01l0.37,3.89l-0.37,0.01L125.21,240.51z"/>
			<path class="st6" d="M126.57,243.01c-0.08-0.82,0.45-1.41,1.25-1.43c0.8-0.01,1.44,0.56,1.52,1.38c0.08,0.82-0.45,1.42-1.24,1.43
				C127.29,244.41,126.65,243.83,126.57,243.01z M128.96,242.97c-0.06-0.65-0.53-1.07-1.11-1.06c-0.58,0.01-0.97,0.45-0.91,1.09
				c0.06,0.65,0.54,1.07,1.12,1.06C128.64,244.05,129.02,243.61,128.96,242.97z"/>
			<path class="st6" d="M131.32,241.52l0.04,0.36c-0.03,0-0.06,0-0.09,0c-0.57,0.01-0.88,0.38-0.82,1.04l0.14,1.41l-0.37,0.01
				l-0.27-2.77l0.35-0.01l0.05,0.54C130.49,241.73,130.82,241.53,131.32,241.52z"/>
			<path class="st6" d="M133.25,243.97l0.14-0.3c0.23,0.17,0.62,0.3,1,0.3c0.52-0.01,0.71-0.19,0.68-0.47
				c-0.07-0.72-1.78-0.13-1.89-1.22c-0.04-0.45,0.3-0.8,1-0.81c0.35-0.01,0.74,0.09,0.99,0.24l-0.13,0.3
				c-0.25-0.17-0.55-0.23-0.82-0.22c-0.49,0.01-0.69,0.21-0.66,0.47c0.07,0.75,1.78,0.16,1.89,1.22c0.05,0.48-0.33,0.8-1.04,0.81
				C133.94,244.3,133.49,244.16,133.25,243.97z"/>
			<path class="st6" d="M135.74,240.59c-0.01-0.14,0.09-0.27,0.24-0.27c0.15,0,0.28,0.11,0.29,0.25c0.02,0.15-0.09,0.28-0.24,0.28
				C135.89,240.85,135.76,240.73,135.74,240.59z M135.91,241.46l0.37-0.01l0.28,2.78l-0.37,0.01L135.91,241.46z"/>
			<path class="st6" d="M139,244.03c-0.13,0.13-0.34,0.2-0.55,0.2c-0.51,0.01-0.83-0.28-0.88-0.8l-0.17-1.68l-0.49,0.01l-0.03-0.32
				l0.49-0.01l-0.06-0.61l0.37-0.01l0.06,0.61l0.83-0.01l0.03,0.32l-0.83,0.01l0.17,1.66c0.03,0.33,0.22,0.51,0.52,0.5
				c0.15,0,0.3-0.05,0.39-0.15L139,244.03z"/>
			<path class="st6" d="M142.92,242.4l0.18,1.73l-0.35,0.01l-0.04-0.44c-0.14,0.29-0.44,0.47-0.89,0.48
				c-0.62,0.01-1.03-0.31-1.08-0.8c-0.04-0.43,0.19-0.79,0.97-0.81l0.86-0.01l-0.02-0.17c-0.05-0.48-0.34-0.73-0.85-0.72
				c-0.35,0.01-0.67,0.14-0.87,0.34l-0.19-0.28c0.25-0.24,0.64-0.39,1.07-0.4C142.41,241.33,142.84,241.68,142.92,242.4z
				 M142.64,243.3l-0.05-0.46l-0.85,0.01c-0.53,0.01-0.68,0.22-0.65,0.51c0.03,0.32,0.31,0.52,0.74,0.51
				C142.25,243.88,142.53,243.67,142.64,243.3z"/>
			<path class="st6" d="M148.42,242.43l0.17,1.63l-0.37,0.01l-0.17-1.59c-0.06-0.59-0.38-0.89-0.87-0.88
				c-0.56,0.01-0.87,0.39-0.8,1.03l0.15,1.47l-0.37,0.01l-0.16-1.59c-0.06-0.59-0.38-0.89-0.88-0.88c-0.55,0.01-0.87,0.39-0.81,1.03
				l0.15,1.47l-0.37,0.01l-0.29-2.8l0.35-0.01l0.05,0.51c0.16-0.34,0.49-0.54,0.94-0.55c0.45-0.01,0.82,0.18,1.03,0.57
				c0.16-0.37,0.52-0.6,1.01-0.61C147.86,241.23,148.33,241.62,148.42,242.43z"/>
			<path class="st6" d="M151.83,242.71l-2.27,0.04c0.1,0.59,0.58,0.97,1.17,0.96c0.33-0.01,0.61-0.13,0.79-0.38l0.23,0.24
				c-0.21,0.3-0.57,0.47-1,0.48c-0.85,0.01-1.49-0.58-1.58-1.41c-0.09-0.83,0.41-1.43,1.18-1.45c0.76-0.01,1.38,0.56,1.47,1.4
				C151.83,242.63,151.83,242.67,151.83,242.71z M149.53,242.47l1.93-0.03c-0.1-0.55-0.53-0.93-1.06-0.92
				C149.86,241.52,149.52,241.92,149.53,242.47z"/>
			<path class="st6" d="M154.14,243.8c-0.13,0.14-0.34,0.2-0.55,0.21c-0.51,0.01-0.83-0.29-0.88-0.81l-0.18-1.7l-0.49,0.01
				l-0.03-0.32l0.49-0.01l-0.06-0.61l0.37-0.01l0.07,0.61l0.83-0.01l0.03,0.32l-0.83,0.01l0.18,1.68c0.03,0.33,0.22,0.51,0.53,0.51
				c0.15,0,0.29-0.05,0.39-0.15L154.14,243.8z"/>
		</g>
		<path class="st7" d="M218.99,260.45l-88.56,2.39c-3.94,0.1-7.3-2.99-7.73-7.12l-1.99-19.02c-0.49-4.68,2.96-8.78,7.43-8.86
			l86.28-1.4L218.99,260.45z"/>
		<g>
			<path class="st8" d="M131.55,225.41l1.98,19.03c0.43,4.13,3.79,7.22,7.74,7.12l105.57-2.84c4.47-0.12,7.88-4.27,7.34-8.95
				l-2.05-17.88c-0.47-4.06-3.77-7.09-7.65-7.03l-105.51,1.7C134.5,216.63,131.06,220.73,131.55,225.41z"/>
			<path class="st9" d="M246.84,248.71l-105.58,2.84c-3.94,0.11-7.31-2.99-7.74-7.12l-1.98-19.03c-0.23-2.22,0.43-4.31,1.66-5.9
				c-2.22,1.6-3.58,4.4-3.26,7.46l1.98,19.03c0.43,4.13,3.79,7.22,7.74,7.12l105.57-2.84c2.32-0.06,4.35-1.22,5.69-2.96
				C249.77,248.15,248.37,248.67,246.84,248.71z"/>
		</g>
		<path class="st2" d="M80.36,275.03L82.53,294c0.48,4.16,3.93,7.23,7.9,7.02l105.37-5.44c4.43-0.23,7.73-4.39,7.15-9.03
			l-2.16-17.28c-0.51-4.08-3.88-7.08-7.78-6.94l-105.38,3.75C83.19,266.24,79.82,270.37,80.36,275.03z"/>
		<path class="st10" d="M55.3,86.37l120.6,4.76l-1.42-10.15c-0.39-2.76-2.58-4.85-5.23-4.97L59.96,70.87
			c-3.43-0.16-6.17,2.97-5.74,6.56L55.3,86.37z"/>
		<path class="st8" d="M169.33,79.87l-4.07-2.59l-3.18,3.24l0.8,5.28l3.99,2.04l3.13-3.61L169.33,79.87z M166.49,84.73
			c-0.85,0.14-1.69-0.71-1.87-1.91c-0.18-1.19,0.36-2.28,1.21-2.42c0.85-0.15,1.69,0.71,1.87,1.9
			C167.89,83.5,167.34,84.58,166.49,84.73z"/>
		<g>
			<path class="st11" d="M150.72,170.06l0.04,0.35c0.42,3.5,3.27,6.11,6.62,6.06l22.92-0.35c5.62-0.1,8.83-3.89,8.28-8.01l0,0
				c-0.45-3.42-5.1-5.83-8.38-5.83l-22.14-0.98C154.1,161.3,150.22,165.93,150.72,170.06z"/>
			<path class="st12" d="M152.52,169.08l0.04,0.35c0.42,3.5,3.27,6.11,6.62,6.06l22.92-0.35c3.95-0.06,6.96-3.76,6.42-7.88l0,0
				c-0.45-3.42-3.23-5.97-6.51-5.97h-22.96C155.09,161.3,152.03,164.95,152.52,169.08z"/>
			<g>
				<g>
					<path class="st13" d="M169.31,172.77c-0.2,0-0.4-0.07-0.56-0.22c-0.36-0.32-0.39-0.89-0.09-1.27l2.43-2.95l-3.15-2.99
						c-0.35-0.33-0.38-0.9-0.06-1.27c0.31-0.37,0.85-0.4,1.2-0.07l4.39,4.17l-3.52,4.28C169.79,172.66,169.55,172.77,169.31,172.77z
						"/>
				</g>
				<g>
					<path class="st13" d="M173.07,172.75c-0.2,0-0.4-0.07-0.56-0.22c-0.36-0.32-0.39-0.89-0.09-1.27l2.43-2.95l-3.15-2.99
						c-0.35-0.33-0.38-0.9-0.06-1.27c0.31-0.37,0.85-0.4,1.2-0.07l4.39,4.17l-3.52,4.28C173.55,172.64,173.31,172.75,173.07,172.75z
						"/>
				</g>
			</g>
			
				<radialGradient id="SVGID_2_" cx="397.8249" cy="61.4773" r="16.1715" gradientTransform="matrix(0.9974 0 0 0.6207 -227.6182 129.9788)" gradientUnits="userSpaceOnUse">
				<stop  offset="0" style="stop-color:#F94081"/>
				<stop  offset="1" style="stop-color:#000000"/>
			</radialGradient>
			<ellipse class="st14" cx="169.17" cy="168.14" rx="16.13" ry="10.04"/>
		</g>
		<g>
			<path class="st6" d="M63.93,75.7l1.32,0.05L66,81.03l2.87,0.1l0.18,1.22l-4.2-0.14L63.93,75.7z"/>
			<path class="st6" d="M68.87,79.11c-0.28-1.93,0.84-3.3,2.65-3.24c1.8,0.07,3.33,1.53,3.62,3.46c0.28,1.93-0.85,3.3-2.65,3.24
				C70.68,82.51,69.15,81.04,68.87,79.11z M73.79,79.29c-0.18-1.23-1.07-2.1-2.09-2.13c-1.02-0.04-1.67,0.78-1.49,2.01
				c0.18,1.23,1.07,2.1,2.09,2.13C73.32,81.33,73.97,80.52,73.79,79.29z"/>
			<path class="st6" d="M80.25,82.72l-1.37-1.83l-0.07,0l-1.15-0.04l0.26,1.8L76.6,82.6l-0.94-6.45l2.47,0.09
				c1.53,0.06,2.62,0.98,2.83,2.43c0.14,0.96-0.19,1.66-0.88,1.99l1.59,2.11L80.25,82.72z M78.23,77.45l-1.08-0.04l0.33,2.25
				l1.08,0.04c0.81,0.03,1.16-0.38,1.05-1.08C79.51,77.91,79.04,77.48,78.23,77.45z"/>
			<path class="st6" d="M86.87,81.75l0.18,1.19l-4.43-0.15l-0.95-6.43l4.32,0.16l0.18,1.19l-3.01-0.11l0.21,1.39l2.66,0.1l0.17,1.15
				l-2.66-0.09l0.22,1.49L86.87,81.75z"/>
			<path class="st6" d="M93.31,83.15l-0.59-3.83l-1.2,3.1l-0.6-0.02l-2.14-3.14l0.57,3.76l-1.24-0.04l-0.96-6.4l1.09,0.04l2.74,4.05
				l1.51-3.89l1.09,0.04l0.99,6.38L93.31,83.15z"/>
			<path class="st6" d="M97.24,76.96l1.32,0.05l0.98,6.35l-1.33-0.04L97.24,76.96z"/>
			<path class="st6" d="M105.24,79.54c0.22,1.41-0.6,2.25-2.13,2.2l-1.15-0.04l0.27,1.75l-1.33-0.04l-0.99-6.35l2.47,0.09
				C103.92,77.21,105.02,78.12,105.24,79.54z M103.9,79.49c-0.11-0.7-0.58-1.12-1.39-1.15l-1.08-0.04l0.34,2.2l1.08,0.04
				C103.66,80.57,104.01,80.18,103.9,79.49z"/>
			<path class="st6" d="M106.35,82.97l0.28-1.09c0.54,0.4,1.31,0.7,1.99,0.72c0.79,0.03,1.06-0.25,1-0.64
				c-0.19-1.18-3.39-0.48-3.76-2.83c-0.17-1.08,0.47-1.94,2.1-1.88c0.72,0.03,1.48,0.24,2.07,0.63l-0.23,1.09
				c-0.58-0.35-1.16-0.54-1.66-0.55c-0.78-0.03-1.04,0.28-0.97,0.68c0.18,1.16,3.38,0.48,3.75,2.8c0.17,1.05-0.48,1.93-2.12,1.87
				C107.88,83.74,106.92,83.42,106.35,82.97z"/>
			<path class="st6" d="M111.62,81l-0.56-3.53l1.32,0.05l0.56,3.47c0.19,1.2,0.75,1.71,1.55,1.73c0.81,0.03,1.2-0.45,1-1.64
				l-0.56-3.46l1.31,0.05l0.57,3.52c0.3,1.85-0.5,2.84-2.13,2.78C113.05,83.92,111.92,82.86,111.62,81z"/>
			<path class="st6" d="M123.77,84.16l-0.62-3.75l-1.18,3.03l-0.6-0.02l-2.17-3.07l0.6,3.68l-1.24-0.04l-1.02-6.27l1.09,0.04
				l2.78,3.97l1.47-3.81l1.09,0.04l1.04,6.25L123.77,84.16z"/>
		</g>
		<g>
			<path class="st8" d="M79.42,140.3l0.77,0l0.54,3.03l1.66-0.01l0.13,0.7l-2.43,0.02L79.42,140.3z"/>
			<path class="st8" d="M82.35,142.15c-0.2-1.11,0.42-1.93,1.46-1.93c1.04,0,1.96,0.8,2.16,1.91c0.2,1.11-0.42,1.92-1.46,1.93
				C83.46,144.07,82.55,143.26,82.35,142.15z M85.19,142.14c-0.13-0.71-0.66-1.19-1.25-1.18c-0.59,0-0.95,0.49-0.82,1.19
				s0.66,1.19,1.25,1.18C84.96,143.33,85.32,142.84,85.19,142.14z"/>
			<path class="st8" d="M88.99,143.97l-0.83-1.03l-0.04,0l-0.67,0l0.19,1.03l-0.77,0.01l-0.68-3.7l1.43,0
				c0.88,0,1.53,0.51,1.68,1.34c0.1,0.55-0.07,0.96-0.46,1.17l0.96,1.18L88.99,143.97z M87.72,140.97l-0.62,0l0.24,1.29l0.62,0
				c0.47,0,0.66-0.25,0.58-0.65C88.47,141.21,88.19,140.97,87.72,140.97z"/>
			<path class="st8" d="M92.79,143.25l0.13,0.68l-2.56,0.02l-0.69-3.69l2.5-0.01l0.13,0.68l-1.74,0.01l0.15,0.8l1.54-0.01l0.12,0.66
				l-1.54,0.01l0.16,0.85L92.79,143.25z"/>
			<path class="st8" d="M96.54,143.91l-0.42-2.2l-0.63,1.82l-0.35,0l-1.3-1.76l0.41,2.16l-0.72,0.01l-0.69-3.68l0.63,0l1.67,2.28
				l0.79-2.28l0.63,0l0.71,3.66L96.54,143.91z"/>
			<path class="st8" d="M98.68,140.24l0.77,0l0.7,3.65l-0.77,0.01L98.68,140.24z"/>
			<path class="st8" d="M103.36,141.54c0.16,0.81-0.3,1.32-1.18,1.32l-0.67,0l0.19,1l-0.77,0.01l-0.7-3.64l1.43,0
				C102.55,140.23,103.2,140.73,103.36,141.54z M102.58,141.55c-0.08-0.4-0.36-0.63-0.83-0.63l-0.62,0l0.24,1.26l0.62,0
				C102.47,142.18,102.66,141.94,102.58,141.55z"/>
			<path class="st8" d="M104.07,143.5l0.14-0.63c0.32,0.22,0.77,0.37,1.17,0.37c0.45,0,0.61-0.17,0.56-0.39
				c-0.13-0.68-1.97-0.2-2.23-1.55c-0.12-0.62,0.23-1.13,1.17-1.13c0.42,0,0.86,0.11,1.21,0.32l-0.11,0.64
				c-0.34-0.19-0.68-0.28-0.97-0.28c-0.45,0-0.59,0.19-0.55,0.42c0.13,0.67,1.96,0.2,2.23,1.53c0.12,0.6-0.24,1.12-1.18,1.13
				C104.97,143.91,104.41,143.74,104.07,143.5z"/>
			<path class="st8" d="M107.07,142.24l-0.4-2.02l0.77,0l0.39,1.99c0.14,0.69,0.47,0.97,0.93,0.97c0.47,0,0.68-0.29,0.55-0.97
				l-0.4-1.99l0.76,0l0.4,2.02c0.21,1.06-0.23,1.65-1.17,1.66C107.96,143.89,107.28,143.3,107.07,142.24z"/>
			<path class="st8" d="M114.15,143.78l-0.44-2.15l-0.62,1.78l-0.35,0l-1.32-1.72l0.42,2.11l-0.72,0.01l-0.72-3.6l0.63,0l1.69,2.23
				l0.77-2.23l0.63,0l0.73,3.58L114.15,143.78z"/>
		</g>
		<g>
			<path class="st8" d="M126.94,140.32l0.76,0.02l0.47,3.04l1.66,0.03l0.11,0.71l-2.43-0.05L126.94,140.32z"/>
			<path class="st8" d="M129.82,142.25c-0.17-1.11,0.46-1.92,1.51-1.89c1.04,0.03,1.94,0.86,2.11,1.97
				c0.18,1.11-0.47,1.91-1.51,1.89C130.89,144.2,129.99,143.36,129.82,142.25z M132.66,142.31c-0.11-0.71-0.63-1.2-1.22-1.22
				c-0.59-0.01-0.96,0.46-0.85,1.17c0.11,0.71,0.63,1.2,1.22,1.22C132.41,143.5,132.78,143.02,132.66,142.31z"/>
			<path class="st8" d="M136.42,144.24l-0.8-1.05l-0.04,0l-0.67-0.01l0.16,1.04l-0.77-0.02l-0.59-3.72l1.43,0.03
				c0.88,0.02,1.52,0.55,1.65,1.38c0.09,0.56-0.1,0.96-0.49,1.16l0.93,1.21L136.42,144.24z M135.22,141.22l-0.62-0.01l0.21,1.3
				l0.62,0.01c0.47,0.01,0.67-0.23,0.6-0.63C135.96,141.47,135.69,141.23,135.22,141.22z"/>
			<path class="st8" d="M140.24,143.64l0.11,0.69l-2.56-0.05l-0.6-3.71l2.5,0.06l0.11,0.69l-1.74-0.04l0.13,0.8l1.54,0.03l0.11,0.67
				l-1.54-0.03l0.14,0.86L140.24,143.64z"/>
			<path class="st8" d="M143.97,144.4l-0.37-2.21l-0.67,1.8l-0.35-0.01l-1.26-1.8l0.35,2.17l-0.72-0.01l-0.6-3.69l0.63,0.02
				l1.61,2.32l0.84-2.26l0.63,0.02l0.62,3.68L143.97,144.4z"/>
			<path class="st8" d="M146.2,140.78l0.76,0.02l0.61,3.66l-0.77-0.02L146.2,140.78z"/>
			<path class="st8" d="M150.84,142.22c0.14,0.81-0.33,1.31-1.21,1.29l-0.67-0.01l0.17,1.01l-0.77-0.02l-0.61-3.66l1.43,0.03
				C150.06,140.88,150.7,141.4,150.84,142.22z M150.06,142.2c-0.07-0.4-0.34-0.64-0.81-0.65l-0.62-0.01l0.21,1.27l0.62,0.01
				C149.93,142.82,150.13,142.59,150.06,142.2z"/>
			<path class="st8" d="M151.5,144.19l0.15-0.63c0.32,0.23,0.76,0.39,1.16,0.4c0.45,0.01,0.61-0.15,0.57-0.38
				c-0.12-0.68-1.96-0.25-2.19-1.61c-0.11-0.62,0.26-1.12,1.2-1.1c0.42,0.01,0.86,0.13,1.2,0.35l-0.13,0.63
				c-0.34-0.2-0.67-0.3-0.97-0.31c-0.45-0.01-0.6,0.17-0.56,0.4c0.11,0.67,1.96,0.25,2.19,1.59c0.1,0.61-0.27,1.12-1.21,1.1
				C152.39,144.63,151.84,144.44,151.5,144.19z"/>
			<path class="st8" d="M154.53,143.01l-0.35-2.03l0.76,0.02l0.35,2c0.12,0.69,0.44,0.98,0.91,0.99c0.47,0.01,0.69-0.27,0.57-0.96
				l-0.35-2l0.76,0.02l0.35,2.03c0.19,1.07-0.27,1.64-1.21,1.62C155.38,144.68,154.72,144.08,154.53,143.01z"/>
			<path class="st8" d="M161.58,144.75l-0.39-2.16l-0.66,1.76l-0.35-0.01l-1.27-1.76l0.37,2.12l-0.72-0.01l-0.63-3.62l0.63,0.02
				l1.63,2.27l0.82-2.21l0.63,0.02l0.65,3.6L161.58,144.75z"/>
		</g>
		<path class="st7" d="M204.12,149.82l-57.41-0.25c-3.85-0.02-7.11-3.05-7.59-7.09l-8.55-70.96c-0.54-4.42,2.85-8.28,7.08-8.08
			l55.22,2.61L204.12,149.82z"/>
		<g>
			
				<radialGradient id="SVGID_3_" cx="245.6958" cy="92.8842" r="56.4506" gradientTransform="matrix(0.9614 0 0 1.0124 1.0633 -0.4919)" gradientUnits="userSpaceOnUse">
				<stop  offset="0" style="stop-color:#000000"/>
				<stop  offset="1" style="stop-color:#02B3C4"/>
			</radialGradient>
			<path class="st15" d="M172.53,58.34l8.55,70.96c0.49,4.04,3.74,7.07,7.6,7.08l105.7,0.46c4.71,0.02,8.33-4.38,7.64-9.28
				l-9.27-66.15c-0.48-3.41-3.18-5.98-6.45-6.13L179.6,50.26C175.37,50.06,171.99,53.92,172.53,58.34z"/>
			<path class="st8" d="M294.32,136.85l-105.7-0.46c-3.86-0.02-7.11-3.05-7.6-7.08l-8.55-70.96c-0.11-0.95-0.04-1.87,0.18-2.74
				c-0.78,1.34-1.16,2.95-0.96,4.66l8.55,70.96c0.49,4.04,3.74,7.07,7.6,7.08l105.7,0.46c3.59,0.02,6.54-2.54,7.44-5.93
				C299.64,135.22,297.19,136.86,294.32,136.85z"/>
		</g>
		<g>
			
				<radialGradient id="SVGID_4_" cx="208.4679" cy="280.379" r="47.2976" gradientTransform="matrix(0.9614 0 0 1.0124 1.0633 -0.4919)" gradientUnits="userSpaceOnUse">
				<stop  offset="0" style="stop-color:#000000"/>
				<stop  offset="1" style="stop-color:#02B3C4"/>
			</radialGradient>
			<path class="st16" d="M140.02,277.15l2.42,18.97c0.52,4.12,3.96,7.12,7.9,6.92l105.48-5.53c4.47-0.23,7.77-4.47,7.13-9.13
				l-2.46-17.83c-0.56-4.05-3.93-7-7.81-6.84l-105.44,4.39C142.78,268.29,139.43,272.48,140.02,277.15z"/>
			<path class="st9" d="M255.82,297.5l-105.48,5.53c-3.94,0.21-7.37-2.8-7.9-6.92l-2.42-18.97c-0.28-2.22,0.33-4.32,1.52-5.94
				c-2.18,1.66-3.48,4.49-3.09,7.54l2.42,18.97c0.52,4.12,3.96,7.12,7.9,6.92l105.48-5.53c2.32-0.12,4.32-1.33,5.62-3.1
				C258.73,296.87,257.35,297.42,255.82,297.5z"/>
		</g>
		<g>
			<path class="st8" d="M235.11,48.5l-6.3-0.15c-1.01-0.02-1.85-0.69-1.97-1.56l-0.7-5.09c-0.15-1.07,0.84-2.01,2.08-1.98l6.3,0.15
				c1.01,0.02,1.85,0.69,1.97,1.56l0.7,5.09C237.34,47.6,236.35,48.53,235.11,48.5z"/>
			<path class="st11" d="M235.19,48.29l-6.07-0.15c-0.97-0.02-1.78-0.67-1.89-1.52l-0.67-4.97c-0.14-1.05,0.81-1.96,2.01-1.93
				l6.07,0.15c0.97,0.02,1.78,0.67,1.89,1.52l0.67,4.97C237.34,47.41,236.39,48.32,235.19,48.29z"/>
			<g>
				<path class="st13" d="M234.37,46.09c-0.18,0-0.36-0.06-0.49-0.18l-4.63-4c-0.28-0.24-0.28-0.63-0.01-0.88
					c0.27-0.24,0.72-0.25,1-0.01l4.63,4c0.28,0.24,0.28,0.63,0.01,0.88C234.73,46.03,234.55,46.09,234.37,46.09z"/>
			</g>
			<g>
				<path class="st13" d="M230.04,46.27c-0.17,0-0.34-0.05-0.48-0.16c-0.29-0.23-0.3-0.62-0.04-0.88l3.98-3.78
					c0.26-0.25,0.71-0.27,1-0.03c0.29,0.23,0.3,0.62,0.04,0.88l-3.98,3.78C230.42,46.21,230.23,46.27,230.04,46.27z"/>
			</g>
		</g>
		<g>
			<path class="st8" d="M269.28,263.35l-7.87,0.21c-1.26,0.03-2.36-0.9-2.57-2.19l-1.25-7.55c-0.26-1.59,0.89-3.06,2.45-3.1
				l7.87-0.21c1.26-0.03,2.36,0.9,2.57,2.19l1.25,7.55C271.99,261.84,270.84,263.31,269.28,263.35z"/>
			<path class="st11" d="M269.36,263.03l-7.57,0.2c-1.22,0.03-2.27-0.88-2.48-2.14l-1.21-7.37c-0.26-1.55,0.86-2.98,2.35-3.02
				l7.57-0.2c1.22-0.03,2.27,0.88,2.48,2.14l1.21,7.37C271.97,261.56,270.86,262.99,269.36,263.03z"/>
			<g>
				<path class="st13" d="M268.13,259.81c-0.21,0-0.42-0.08-0.58-0.23l-6.08-5.65c-0.36-0.34-0.4-0.92-0.08-1.31
					c0.32-0.38,0.88-0.42,1.24-0.08l6.08,5.65c0.36,0.34,0.4,0.92,0.08,1.31C268.61,259.7,268.37,259.81,268.13,259.81z"/>
			</g>
			<g>
				<path class="st13" d="M262.75,260.38c-0.2,0-0.4-0.07-0.56-0.21c-0.37-0.33-0.43-0.91-0.12-1.3l4.67-5.93
					c0.31-0.39,0.86-0.45,1.24-0.12c0.37,0.33,0.43,0.91,0.12,1.3l-4.67,5.93C263.25,260.27,263,260.38,262.75,260.38z"/>
			</g>
		</g>
		<g>
			<path class="st6" d="M185.02,104.03l0.39,0l0.24,3.34l2.09-0.01l0.02,0.34l-2.48,0.01L185.02,104.03z"/>
			<path class="st6" d="M187.92,106.3c-0.06-0.82,0.51-1.41,1.33-1.41c0.82-0.01,1.46,0.57,1.52,1.4c0.06,0.82-0.5,1.41-1.32,1.42
				C188.63,107.71,187.98,107.12,187.92,106.3z M190.38,106.29c-0.05-0.65-0.52-1.08-1.12-1.07c-0.6,0-1.01,0.44-0.97,1.09
				c0.05,0.65,0.53,1.08,1.12,1.07C190.02,107.37,190.43,106.94,190.38,106.29z"/>
			<path class="st6" d="M192.85,104.86l0.03,0.36c-0.03,0-0.06-0.01-0.09,0c-0.59,0-0.92,0.38-0.87,1.03l0.1,1.41l-0.38,0l-0.2-2.77
				l0.36,0l0.04,0.54C191.99,105.06,192.33,104.87,192.85,104.86z"/>
			<path class="st6" d="M196.06,106.36l-2.34,0.02c0.09,0.58,0.56,0.96,1.17,0.96c0.34,0,0.64-0.13,0.83-0.37l0.23,0.24
				c-0.23,0.3-0.61,0.46-1.05,0.46c-0.87,0.01-1.51-0.58-1.58-1.41c-0.06-0.82,0.48-1.41,1.26-1.42c0.79-0.01,1.4,0.57,1.46,1.4
				C196.06,106.28,196.06,106.32,196.06,106.36z M193.7,106.1l1.99-0.01c-0.09-0.54-0.52-0.92-1.06-0.92
				C194.07,105.17,193.7,105.56,193.7,106.1z"/>
			<path class="st6" d="M201.44,105.99l0.12,1.62l-0.38,0l-0.12-1.58c-0.05-0.59-0.37-0.89-0.87-0.88c-0.57,0-0.91,0.38-0.86,1.01
				l0.11,1.46l-0.38,0l-0.12-1.58c-0.04-0.59-0.37-0.89-0.88-0.88c-0.57,0-0.91,0.38-0.86,1.01l0.11,1.46l-0.38,0l-0.21-2.78l0.36,0
				l0.04,0.51c0.17-0.33,0.52-0.53,0.99-0.54c0.46,0,0.84,0.19,1.04,0.58c0.17-0.36,0.56-0.59,1.06-0.6
				C200.9,104.8,201.38,105.19,201.44,105.99z"/>
			<path class="st6" d="M203.63,103.91c-0.01-0.14,0.1-0.27,0.26-0.27c0.15,0,0.29,0.11,0.3,0.26c0.01,0.15-0.1,0.28-0.26,0.28
				C203.77,104.18,203.64,104.06,203.63,103.91z M203.78,104.8l0.38,0l0.22,2.8l-0.38,0L203.78,104.8z"/>
			<path class="st6" d="M208.16,106.17c0.07,0.85-0.48,1.43-1.28,1.44c-0.45,0-0.85-0.19-1.11-0.55l0.12,1.56l-0.38,0l-0.3-3.83
				l0.36,0l0.04,0.55c0.2-0.37,0.57-0.58,1.04-0.58C207.45,104.75,208.09,105.32,208.16,106.17z M207.78,106.17
				c-0.05-0.65-0.54-1.09-1.13-1.08c-0.6,0-1.01,0.45-0.96,1.1c0.05,0.65,0.53,1.09,1.13,1.08
				C207.42,107.26,207.84,106.82,207.78,106.17z"/>
			<path class="st6" d="M208.64,107.25l0.15-0.3c0.24,0.17,0.63,0.31,1.02,0.31c0.53,0,0.74-0.19,0.71-0.46
				c-0.06-0.73-1.83-0.14-1.92-1.25c-0.04-0.46,0.33-0.8,1.04-0.81c0.36,0,0.76,0.1,1.01,0.25l-0.14,0.31
				c-0.26-0.17-0.56-0.24-0.84-0.23c-0.51,0-0.71,0.2-0.69,0.47c0.06,0.76,1.83,0.17,1.92,1.25c0.04,0.49-0.36,0.8-1.09,0.81
				C209.34,107.59,208.88,107.44,208.64,107.25z"/>
			<path class="st6" d="M213.96,104.72l0.23,2.82l-0.36,0l-0.04-0.51c-0.17,0.34-0.52,0.54-0.96,0.55c-0.71,0-1.22-0.39-1.28-1.2
				l-0.13-1.63l0.38,0l0.13,1.59c0.05,0.6,0.38,0.9,0.92,0.9c0.59,0,0.92-0.39,0.87-1.03l-0.12-1.48L213.96,104.72z"/>
			<path class="st6" d="M219.74,105.86l0.14,1.64l-0.38,0l-0.13-1.6c-0.05-0.6-0.37-0.9-0.88-0.9c-0.57,0-0.91,0.38-0.85,1.03
				l0.12,1.48l-0.38,0l-0.13-1.6c-0.05-0.6-0.37-0.9-0.88-0.9c-0.57,0-0.91,0.38-0.85,1.03l0.12,1.48l-0.38,0l-0.23-2.82l0.36,0
				l0.04,0.51c0.17-0.34,0.52-0.54,0.98-0.54c0.46,0,0.84,0.19,1.04,0.59c0.17-0.37,0.55-0.6,1.06-0.6
				C219.19,104.65,219.67,105.05,219.74,105.86z"/>
			<path class="st6" d="M224.53,103.47l0.34,4l-0.36,0l-0.05-0.56c-0.2,0.38-0.57,0.59-1.03,0.59c-0.8,0-1.45-0.58-1.52-1.43
				c-0.07-0.86,0.47-1.44,1.27-1.45c0.45,0,0.85,0.19,1.11,0.55l-0.15-1.7L224.53,103.47z M224.37,106.05
				c-0.06-0.66-0.54-1.1-1.13-1.1c-0.6,0-1.01,0.45-0.95,1.11c0.06,0.66,0.54,1.1,1.14,1.1
				C224.02,107.16,224.43,106.72,224.37,106.05z"/>
			<path class="st6" d="M225.52,106.05c-0.07-0.84,0.48-1.45,1.3-1.45c0.82-0.01,1.47,0.59,1.55,1.43s-0.48,1.45-1.3,1.46
				C226.26,107.49,225.6,106.89,225.52,106.05z M227.99,106.03c-0.06-0.67-0.54-1.1-1.13-1.1c-0.6,0-1.01,0.45-0.95,1.11
				c0.06,0.66,0.54,1.1,1.14,1.1C227.64,107.14,228.05,106.69,227.99,106.03z"/>
			<path class="st6" d="M228.92,103.43l0.38,0l0.35,4.02l-0.38,0L228.92,103.43z"/>
			<path class="st6" d="M230.3,106.01c-0.07-0.84,0.48-1.45,1.3-1.46c0.82-0.01,1.47,0.59,1.55,1.44c0.07,0.85-0.47,1.46-1.29,1.46
				C231.04,107.46,230.38,106.86,230.3,106.01z M232.77,106c-0.06-0.67-0.54-1.11-1.14-1.1c-0.6,0-1,0.45-0.95,1.12
				c0.06,0.67,0.55,1.11,1.14,1.1C232.42,107.11,232.83,106.66,232.77,106z"/>
			<path class="st6" d="M235.21,104.53l0.03,0.37c-0.03,0-0.06-0.01-0.09-0.01c-0.59,0-0.91,0.39-0.85,1.06l0.13,1.46l-0.38,0
				l-0.25-2.86l0.36,0l0.05,0.56C234.36,104.74,234.69,104.53,235.21,104.53z"/>
			<path class="st6" d="M237.17,107.07l0.14-0.31c0.24,0.18,0.63,0.32,1.03,0.31c0.53,0,0.73-0.19,0.71-0.47
				c-0.07-0.75-1.83-0.15-1.93-1.28c-0.04-0.47,0.32-0.82,1.03-0.82c0.36,0,0.77,0.1,1.01,0.26l-0.14,0.31
				c-0.26-0.17-0.56-0.24-0.85-0.24c-0.51,0-0.71,0.21-0.69,0.48c0.07,0.77,1.83,0.18,1.93,1.28c0.04,0.5-0.35,0.82-1.08,0.82
				C237.88,107.42,237.42,107.27,237.17,107.07z"/>
			<path class="st6" d="M239.77,103.61c-0.01-0.15,0.1-0.27,0.25-0.28c0.15,0,0.29,0.12,0.3,0.26c0.01,0.16-0.09,0.28-0.25,0.29
				C239.92,103.88,239.79,103.76,239.77,103.61z M239.94,104.51l0.38,0l0.26,2.87l-0.38,0L239.94,104.51z"/>
			<path class="st6" d="M243.1,107.19c-0.14,0.14-0.35,0.2-0.57,0.21c-0.53,0-0.85-0.3-0.9-0.83l-0.16-1.74l-0.5,0l-0.03-0.33l0.5,0
				l-0.06-0.63l0.38,0l0.06,0.63l0.85-0.01l0.03,0.33l-0.85,0.01l0.16,1.71c0.03,0.34,0.22,0.52,0.53,0.52c0.15,0,0.3-0.05,0.4-0.15
				L243.1,107.19z"/>
			<path class="st6" d="M247.15,105.55l0.17,1.79l-0.36,0l-0.04-0.45c-0.14,0.3-0.46,0.48-0.92,0.48c-0.63,0-1.05-0.33-1.1-0.83
				c-0.04-0.44,0.2-0.82,1.01-0.82l0.89-0.01l-0.02-0.18c-0.05-0.49-0.34-0.76-0.86-0.76c-0.36,0-0.69,0.14-0.9,0.35l-0.2-0.29
				c0.26-0.25,0.66-0.39,1.1-0.4C246.64,104.44,247.08,104.81,247.15,105.55z M246.86,106.47l-0.04-0.47l-0.88,0.01
				c-0.54,0-0.7,0.22-0.67,0.52c0.03,0.33,0.31,0.54,0.76,0.54C246.45,107.06,246.74,106.85,246.86,106.47z"/>
			<path class="st6" d="M252.82,105.63l0.16,1.68l-0.38,0l-0.16-1.64c-0.06-0.61-0.39-0.92-0.89-0.92c-0.57,0-0.9,0.39-0.84,1.05
				l0.14,1.52l-0.38,0l-0.15-1.64c-0.06-0.61-0.39-0.92-0.9-0.92c-0.57,0-0.9,0.39-0.84,1.05l0.14,1.51l-0.38,0l-0.27-2.88l0.36,0
				l0.05,0.53c0.16-0.35,0.51-0.55,0.98-0.56c0.46,0,0.84,0.2,1.05,0.6c0.17-0.38,0.54-0.61,1.05-0.62
				C252.25,104.39,252.74,104.8,252.82,105.63z"/>
			<path class="st6" d="M256.34,105.95l-2.34,0.02c0.1,0.61,0.59,1,1.2,1c0.34,0,0.63-0.13,0.82-0.39l0.24,0.25
				c-0.22,0.31-0.59,0.48-1.04,0.48c-0.87,0.01-1.53-0.61-1.61-1.47c-0.08-0.86,0.44-1.47,1.23-1.48c0.79-0.01,1.42,0.59,1.5,1.46
				C256.33,105.87,256.33,105.91,256.34,105.95z M253.96,105.68l1.99-0.01c-0.1-0.57-0.54-0.96-1.09-0.96
				C254.32,104.71,253.96,105.11,253.96,105.68z"/>
			<path class="st6" d="M258.7,107.09c-0.14,0.14-0.35,0.21-0.57,0.21c-0.53,0-0.85-0.3-0.9-0.84l-0.17-1.75l-0.5,0l-0.03-0.33
				l0.5,0l-0.06-0.63l0.38,0l0.06,0.63l0.85-0.01l0.03,0.33l-0.85,0.01l0.17,1.73c0.03,0.34,0.22,0.53,0.54,0.53
				c0.15,0,0.3-0.05,0.4-0.15L258.7,107.09z"/>
			<path class="st6" d="M259.76,106.99c0.01,0.09-0.01,0.17-0.04,0.32l-0.15,0.76l-0.26,0l0.1-0.8c-0.12-0.03-0.21-0.14-0.22-0.28
				c-0.02-0.17,0.09-0.3,0.25-0.3C259.62,106.69,259.75,106.82,259.76,106.99z"/>
			<path class="st6" d="M264.26,104.32l0.4,3.99l-0.38,0l-0.16-1.62c-0.2,0.38-0.56,0.58-1.01,0.58c-0.8,0-1.45-0.59-1.54-1.47
				c-0.09-0.88,0.45-1.48,1.25-1.49c0.46,0,0.87,0.2,1.14,0.59l-0.06-0.58L264.26,104.32z M264.04,105.78
				c-0.07-0.68-0.56-1.13-1.15-1.13c-0.6,0-1,0.47-0.93,1.14c0.07,0.68,0.56,1.13,1.16,1.13
				C263.7,106.92,264.1,106.46,264.04,105.78z"/>
			<path class="st6" d="M267.85,104.29l0.29,2.92l-0.36,0l-0.05-0.53c-0.16,0.36-0.5,0.56-0.95,0.57c-0.71,0-1.22-0.41-1.31-1.25
				l-0.17-1.69l0.38,0l0.17,1.65c0.06,0.62,0.4,0.94,0.94,0.93c0.59,0,0.91-0.4,0.85-1.07l-0.15-1.53L267.85,104.29z"/>
			<path class="st6" d="M268.77,105.75c-0.09-0.87,0.46-1.49,1.28-1.5c0.82-0.01,1.48,0.61,1.57,1.48c0.09,0.87-0.45,1.5-1.27,1.5
				C269.53,107.23,268.86,106.62,268.77,105.75z M271.24,105.73c-0.07-0.69-0.56-1.14-1.15-1.13c-0.6,0-1,0.46-0.93,1.15
				c0.07,0.68,0.56,1.14,1.16,1.13C270.91,106.88,271.31,106.42,271.24,105.73z"/>
			<path class="st6" d="M273.52,106.85l0.14-0.31c0.24,0.18,0.64,0.32,1.03,0.32c0.53,0,0.73-0.19,0.7-0.48
				c-0.08-0.76-1.83-0.15-1.95-1.31c-0.05-0.48,0.31-0.84,1.02-0.85c0.36,0,0.77,0.1,1.02,0.27l-0.13,0.32
				c-0.26-0.18-0.56-0.25-0.85-0.24c-0.51,0-0.71,0.21-0.68,0.49c0.08,0.79,1.84,0.18,1.95,1.31c0.05,0.51-0.34,0.84-1.07,0.84
				C274.24,107.21,273.77,107.05,273.52,106.85z"/>
			<path class="st6" d="M278.48,105.33l0.19,1.82l-0.36,0l-0.05-0.46c-0.14,0.3-0.45,0.49-0.91,0.49c-0.63,0-1.06-0.34-1.11-0.85
				c-0.05-0.45,0.19-0.83,0.99-0.84l0.89-0.01l-0.02-0.18c-0.05-0.5-0.35-0.78-0.87-0.77c-0.36,0-0.69,0.14-0.9,0.35l-0.2-0.29
				c0.26-0.25,0.66-0.4,1.1-0.41C277.95,104.19,278.4,104.57,278.48,105.33z M278.2,106.27l-0.05-0.48l-0.88,0.01
				c-0.54,0-0.7,0.23-0.67,0.53c0.04,0.34,0.32,0.55,0.77,0.55C277.8,106.87,278.09,106.66,278.2,106.27z"/>
			<path class="st6" d="M279.27,102.99l0.38,0l0.43,4.16l-0.38,0L279.27,102.99z"/>
			<path class="st6" d="M283.44,105.77l-2.35,0.02c0.11,0.62,0.6,1.02,1.21,1.02c0.34,0,0.63-0.13,0.82-0.39l0.24,0.26
				c-0.22,0.32-0.59,0.49-1.03,0.49c-0.87,0.01-1.54-0.62-1.63-1.49c-0.09-0.87,0.42-1.5,1.21-1.51c0.79-0.01,1.42,0.6,1.52,1.49
				C283.43,105.68,283.43,105.73,283.44,105.77z M281.06,105.49l1.99-0.01c-0.11-0.58-0.55-0.98-1.1-0.97
				C281.41,104.5,281.05,104.91,281.06,105.49z"/>
			<path class="st6" d="M188.39,112.62c0.06,0.84-0.5,1.41-1.3,1.41c-0.45,0-0.85-0.19-1.11-0.54l0.11,1.54l-0.38,0l-0.27-3.78
				l0.36,0l0.04,0.55c0.2-0.37,0.58-0.57,1.04-0.57C187.69,111.22,188.33,111.78,188.39,112.62z M188.01,112.62
				c-0.05-0.64-0.53-1.08-1.12-1.07c-0.6,0-1.02,0.44-0.97,1.08c0.05,0.65,0.53,1.07,1.12,1.07
				C187.64,113.7,188.06,113.27,188.01,112.62z"/>
			<path class="st6" d="M191.6,111.23l0.2,2.77l-0.36,0l-0.04-0.51c-0.17,0.34-0.52,0.53-0.97,0.53c-0.72,0-1.21-0.39-1.27-1.19
				l-0.12-1.6l0.38,0l0.11,1.57c0.04,0.59,0.37,0.89,0.91,0.89c0.59,0,0.93-0.38,0.88-1.01l-0.11-1.45L191.6,111.23z"/>
			<path class="st6" d="M194.34,113.82c-0.14,0.13-0.36,0.2-0.58,0.2c-0.53,0-0.84-0.29-0.88-0.81l-0.12-1.68l-0.5,0l-0.02-0.32
				l0.5,0l-0.04-0.61l0.38,0l0.04,0.61l0.85,0l0.02,0.32l-0.85,0l0.12,1.66c0.02,0.33,0.21,0.51,0.52,0.51
				c0.16,0,0.31-0.05,0.41-0.14L194.34,113.82z"/>
			<path class="st6" d="M197.04,112.26l0.13,1.72l-0.36,0l-0.03-0.43c-0.15,0.29-0.47,0.46-0.93,0.46c-0.64,0-1.05-0.33-1.09-0.81
				c-0.03-0.43,0.22-0.79,1.03-0.79l0.89,0l-0.01-0.17c-0.04-0.48-0.33-0.73-0.85-0.73c-0.36,0-0.69,0.13-0.91,0.33l-0.19-0.28
				c0.27-0.24,0.67-0.38,1.11-0.38C196.54,111.19,196.98,111.55,197.04,112.26z M196.72,113.15l-0.03-0.45l-0.88,0
				c-0.55,0-0.71,0.21-0.68,0.5c0.02,0.32,0.3,0.52,0.75,0.52C196.3,113.72,196.6,113.52,196.72,113.15z"/>
			<path class="st6" d="M200.66,112.37l0.12,1.62l-0.38,0l-0.12-1.58c-0.04-0.59-0.38-0.89-0.91-0.89c-0.6,0-0.95,0.37-0.91,1.01
				l0.11,1.46l-0.38,0l-0.21-2.78l0.36,0l0.04,0.51c0.18-0.34,0.54-0.54,1.03-0.54C200.1,111.18,200.6,111.57,200.66,112.37z"/>
			<path class="st6" d="M203.29,113.81c-0.14,0.13-0.36,0.2-0.58,0.2c-0.53,0-0.85-0.3-0.89-0.81l-0.13-1.69l-0.5,0l-0.02-0.32
				l0.5,0l-0.05-0.61l0.38,0l0.05,0.61l0.85,0l0.02,0.32l-0.85,0l0.13,1.67c0.03,0.33,0.21,0.51,0.53,0.51
				c0.16,0,0.31-0.05,0.41-0.14L203.29,113.81z"/>
			<path class="st6" d="M209.91,112.34l0.13,1.63l-0.38,0l-0.13-1.59c-0.05-0.59-0.37-0.9-0.88-0.89c-0.58,0-0.91,0.38-0.86,1.02
				l0.12,1.47l-0.38,0l-0.13-1.59c-0.05-0.59-0.37-0.89-0.88-0.89c-0.57,0-0.91,0.38-0.86,1.01l0.11,1.47l-0.38,0l-0.22-2.8l0.36,0
				l0.04,0.51c0.17-0.34,0.52-0.53,0.99-0.54c0.46,0,0.84,0.19,1.04,0.59c0.17-0.36,0.56-0.59,1.06-0.6
				C209.36,111.14,209.84,111.54,209.91,112.34z"/>
			<path class="st6" d="M210.69,112.57c-0.07-0.83,0.49-1.43,1.32-1.43c0.82,0,1.47,0.59,1.54,1.42c0.07,0.83-0.49,1.43-1.31,1.44
				C211.41,114,210.76,113.4,210.69,112.57z M213.16,112.56c-0.05-0.66-0.53-1.1-1.13-1.09c-0.6,0-1.01,0.44-0.96,1.1
				c0.05,0.66,0.54,1.09,1.14,1.09C212.81,113.66,213.22,113.22,213.16,112.56z"/>
			<path class="st6" d="M214.12,109.99l0.38,0l0.32,3.97l-0.38,0L214.12,109.99z"/>
			<path class="st6" d="M218.22,112.67l-2.35,0.01c0.09,0.59,0.57,0.98,1.19,0.98c0.34,0,0.64-0.12,0.83-0.37l0.23,0.25
				c-0.23,0.3-0.6,0.46-1.05,0.46c-0.88,0-1.52-0.6-1.59-1.43c-0.07-0.84,0.46-1.43,1.25-1.44c0.79,0,1.41,0.58,1.48,1.43
				C218.22,112.58,218.22,112.62,218.22,112.67z M215.85,112.39l1.99,0c-0.09-0.55-0.53-0.94-1.08-0.94
				C216.22,111.45,215.85,111.84,215.85,112.39z"/>
			<path class="st6" d="M218.69,113.64l0.15-0.3c0.24,0.18,0.63,0.32,1.03,0.31c0.53,0,0.74-0.18,0.71-0.46
				c-0.06-0.74-1.84-0.15-1.93-1.27c-0.04-0.46,0.33-0.81,1.04-0.81c0.36,0,0.77,0.1,1.01,0.26l-0.14,0.31
				c-0.26-0.17-0.56-0.24-0.85-0.24c-0.51,0-0.72,0.2-0.69,0.47c0.06,0.76,1.84,0.18,1.93,1.27c0.04,0.49-0.36,0.81-1.09,0.81
				C219.4,113.98,218.94,113.84,218.69,113.64z"/>
			<path class="st6" d="M223.19,113.78c-0.14,0.14-0.36,0.2-0.58,0.2c-0.53,0-0.85-0.3-0.89-0.82l-0.14-1.71l-0.5,0l-0.03-0.32
				l0.5,0l-0.05-0.62l0.38,0l0.05,0.62l0.85,0l0.03,0.32l-0.85,0l0.14,1.69c0.03,0.33,0.21,0.52,0.53,0.52
				c0.16,0,0.31-0.05,0.4-0.15L223.19,113.78z"/>
			<path class="st6" d="M223.5,110.22c-0.01-0.15,0.1-0.27,0.25-0.27c0.15,0,0.29,0.12,0.3,0.26c0.01,0.16-0.09,0.28-0.25,0.28
				C223.64,110.5,223.51,110.37,223.5,110.22z M223.66,111.12l0.38,0l0.24,2.84l-0.38,0L223.66,111.12z"/>
			<path class="st6" d="M227.68,112.64l-2.35,0.01c0.09,0.59,0.58,0.99,1.19,0.99c0.34,0,0.64-0.13,0.83-0.37l0.24,0.25
				c-0.23,0.3-0.6,0.47-1.04,0.47c-0.88,0-1.53-0.6-1.6-1.44c-0.07-0.84,0.46-1.44,1.25-1.44c0.79,0,1.41,0.58,1.49,1.44
				C227.67,112.56,227.67,112.6,227.68,112.64z M225.3,112.36l1.99,0c-0.1-0.56-0.53-0.94-1.08-0.94
				C225.67,111.42,225.3,111.81,225.3,112.36z"/>
			<path class="st6" d="M231.94,112.17l0.16,1.77l-0.36,0l-0.04-0.44c-0.15,0.29-0.46,0.47-0.93,0.47c-0.64,0-1.06-0.33-1.1-0.83
				c-0.04-0.44,0.21-0.81,1.01-0.81l0.89,0l-0.02-0.17c-0.04-0.49-0.34-0.75-0.86-0.75c-0.36,0-0.69,0.13-0.91,0.34l-0.2-0.29
				c0.26-0.24,0.67-0.39,1.11-0.39C231.43,111.07,231.88,111.44,231.94,112.17z M231.64,113.08l-0.04-0.47l-0.88,0
				c-0.54,0-0.7,0.22-0.68,0.51c0.03,0.33,0.31,0.54,0.76,0.53C231.23,113.67,231.52,113.46,231.64,113.08z"/>
			<path class="st6" d="M235.57,112.28l0.15,1.66l-0.38,0l-0.14-1.62c-0.05-0.6-0.39-0.91-0.92-0.91c-0.6,0-0.95,0.38-0.89,1.03
				l0.13,1.5l-0.38,0l-0.25-2.85l0.36,0l0.05,0.53c0.17-0.35,0.53-0.55,1.02-0.55C234.99,111.06,235.5,111.46,235.57,112.28z"/>
			<path class="st6" d="M237.05,113.66c0.01,0.09-0.01,0.16-0.05,0.32l-0.16,0.75l-0.26,0l0.11-0.79c-0.12-0.03-0.2-0.14-0.22-0.28
				c-0.02-0.17,0.1-0.29,0.26-0.29C236.91,113.37,237.04,113.5,237.05,113.66z"/>
			<path class="st6" d="M241.62,112.61l-2.35,0.01c0.1,0.6,0.58,1,1.2,1c0.34,0,0.64-0.13,0.83-0.38l0.24,0.25
				c-0.22,0.31-0.6,0.47-1.04,0.47c-0.88,0-1.53-0.61-1.61-1.46c-0.08-0.85,0.45-1.46,1.24-1.46s1.42,0.59,1.49,1.45
				C241.61,112.53,241.61,112.57,241.62,112.61z M239.24,112.33l1.99,0c-0.1-0.56-0.54-0.95-1.09-0.95
				C239.6,111.37,239.24,111.77,239.24,112.33z"/>
			<path class="st6" d="M242.09,110.15c-0.01-0.15,0.1-0.27,0.25-0.27c0.15,0,0.29,0.12,0.3,0.27c0.01,0.16-0.09,0.28-0.25,0.29
				C242.24,110.43,242.1,110.3,242.09,110.15z M242.26,111.05l0.38,0l0.26,2.87l-0.38,0L242.26,111.05z"/>
			<path class="st6" d="M247.32,112.13l0.17,1.79l-0.36,0l-0.04-0.45c-0.14,0.3-0.46,0.48-0.92,0.48c-0.64,0-1.06-0.34-1.1-0.83
				c-0.04-0.44,0.2-0.82,1.01-0.82l0.89,0l-0.02-0.18c-0.05-0.49-0.34-0.76-0.87-0.76c-0.36,0-0.69,0.13-0.9,0.34l-0.2-0.29
				c0.26-0.25,0.66-0.39,1.11-0.39C246.8,111.02,247.25,111.39,247.32,112.13z M247.02,113.05l-0.04-0.47l-0.88,0
				c-0.55,0-0.7,0.22-0.67,0.52c0.03,0.33,0.31,0.54,0.76,0.54C246.61,113.64,246.91,113.43,247.02,113.05z"/>
			<path class="st6" d="M248.1,113.59l0.14-0.31c0.24,0.18,0.63,0.32,1.03,0.32c0.53,0,0.74-0.19,0.71-0.47
				c-0.07-0.75-1.84-0.16-1.94-1.3c-0.04-0.47,0.32-0.82,1.03-0.83c0.36,0,0.77,0.1,1.02,0.27l-0.14,0.31
				c-0.26-0.17-0.56-0.25-0.85-0.24c-0.51,0-0.71,0.21-0.69,0.48c0.07,0.78,1.84,0.19,1.94,1.3c0.05,0.5-0.35,0.82-1.08,0.82
				C248.81,113.94,248.35,113.79,248.1,113.59z"/>
			<path class="st6" d="M250.71,113.58l0.14-0.31c0.24,0.18,0.63,0.32,1.03,0.32c0.53,0,0.74-0.19,0.71-0.47
				c-0.07-0.75-1.84-0.16-1.95-1.3c-0.04-0.47,0.32-0.82,1.03-0.83c0.36,0,0.77,0.1,1.02,0.27l-0.14,0.31
				c-0.26-0.18-0.56-0.25-0.85-0.24c-0.51,0-0.71,0.21-0.69,0.48c0.07,0.78,1.84,0.19,1.95,1.3c0.05,0.5-0.35,0.83-1.08,0.83
				C251.43,113.94,250.96,113.79,250.71,113.58z"/>
			<path class="st6" d="M256.01,111.01l0.28,2.9l-0.36,0l-0.05-0.53c-0.16,0.35-0.51,0.56-0.96,0.56c-0.72,0-1.23-0.41-1.31-1.24
				l-0.16-1.68l0.38,0l0.16,1.64c0.06,0.62,0.4,0.93,0.93,0.93c0.59,0,0.92-0.39,0.86-1.05l-0.15-1.52L256.01,111.01z"/>
			<path class="st6" d="M261.83,112.21l0.17,1.69l-0.38,0l-0.16-1.65c-0.06-0.61-0.39-0.93-0.9-0.93c-0.58,0-0.9,0.39-0.84,1.05
				l0.15,1.52l-0.38,0l-0.16-1.65c-0.06-0.61-0.39-0.93-0.9-0.92c-0.57,0-0.9,0.39-0.84,1.05l0.15,1.52l-0.38,0l-0.28-2.9l0.36,0
				l0.05,0.53c0.16-0.35,0.51-0.55,0.98-0.55c0.46,0,0.85,0.2,1.06,0.61c0.17-0.38,0.54-0.61,1.05-0.62
				C261.25,110.97,261.74,111.38,261.83,112.21z"/>
			<path class="st6" d="M266.5,110.97l-0.96,2.92l-0.39,0l-1.53-2.91l0.4,0l1.3,2.48l0.82-2.49L266.5,110.97z"/>
			<path class="st6" d="M266.82,112.43c-0.09-0.87,0.46-1.48,1.28-1.49c0.82,0,1.49,0.61,1.58,1.48c0.09,0.87-0.45,1.49-1.28,1.49
				C267.58,113.92,266.91,113.3,266.82,112.43z M269.29,112.43c-0.07-0.68-0.56-1.14-1.16-1.14c-0.6,0-1,0.46-0.93,1.14
				c0.07,0.68,0.56,1.14,1.16,1.14C268.97,113.57,269.36,113.11,269.29,112.43z"/>
			<path class="st6" d="M270.19,109.76l0.38,0l0.42,4.13l-0.38,0L270.19,109.76z"/>
			<path class="st6" d="M274.28,110.95l0.3,2.93l-0.36,0l-0.05-0.54c-0.16,0.36-0.5,0.56-0.95,0.56c-0.72,0-1.23-0.42-1.31-1.26
				l-0.17-1.7l0.38,0l0.17,1.66c0.06,0.62,0.41,0.94,0.94,0.94c0.59,0,0.92-0.4,0.85-1.07l-0.16-1.54L274.28,110.95z"/>
			<path class="st6" d="M278.34,112.4c0.09,0.89-0.44,1.5-1.24,1.5c-0.45,0-0.86-0.2-1.13-0.58l0.17,1.64l-0.38,0l-0.41-4.02l0.36,0
				l0.06,0.58c0.19-0.39,0.56-0.6,1.02-0.61C277.59,110.91,278.25,111.52,278.34,112.4z M277.96,112.41
				c-0.07-0.68-0.57-1.14-1.16-1.14c-0.6,0-1,0.47-0.93,1.15c0.07,0.69,0.57,1.14,1.17,1.14
				C277.63,113.55,278.03,113.09,277.96,112.41z"/>
			<path class="st6" d="M280.74,113.69c-0.13,0.14-0.35,0.21-0.57,0.21c-0.53,0-0.86-0.31-0.91-0.85l-0.19-1.78l-0.5,0l-0.03-0.34
				l0.5,0l-0.07-0.64l0.38,0l0.07,0.64l0.85,0l0.04,0.34l-0.85,0l0.18,1.76c0.04,0.35,0.23,0.54,0.54,0.54
				c0.16,0,0.31-0.05,0.4-0.15L280.74,113.69z"/>
			<path class="st6" d="M283.67,110.92l0.31,2.95l-0.36,0l-0.06-0.54c-0.16,0.36-0.5,0.57-0.95,0.57c-0.72,0-1.23-0.42-1.32-1.26
				l-0.18-1.71l0.38,0l0.18,1.67c0.07,0.63,0.41,0.95,0.94,0.95c0.59,0,0.91-0.4,0.84-1.07l-0.16-1.55L283.67,110.92z"/>
			<path class="st6" d="M286.97,112.03l0.2,1.83l-0.36,0l-0.05-0.46c-0.14,0.3-0.45,0.49-0.91,0.49c-0.64,0-1.06-0.35-1.12-0.86
				c-0.05-0.45,0.19-0.84,0.99-0.84l0.89,0l-0.02-0.18c-0.05-0.51-0.36-0.78-0.88-0.78c-0.36,0-0.69,0.14-0.9,0.35l-0.2-0.3
				c0.26-0.25,0.66-0.4,1.1-0.4C286.44,110.88,286.89,111.26,286.97,112.03z M286.69,112.98l-0.05-0.48l-0.88,0
				c-0.55,0-0.7,0.23-0.67,0.53c0.04,0.34,0.32,0.56,0.77,0.55C286.29,113.58,286.59,113.36,286.69,112.98z"/>
			<path class="st6" d="M187.56,120.14c-0.14,0.13-0.36,0.19-0.58,0.19c-0.53,0-0.85-0.3-0.88-0.8l-0.12-1.67l-0.5,0l-0.02-0.32
				l0.5,0l-0.04-0.6l0.38,0l0.04,0.6l0.86,0l0.02,0.32l-0.86,0l0.12,1.65c0.02,0.33,0.21,0.5,0.52,0.51c0.16,0,0.31-0.05,0.41-0.14
				L187.56,120.14z"/>
			<path class="st6" d="M189.49,117.53l0.03,0.36c-0.03,0-0.06-0.01-0.09-0.01c-0.59,0-0.92,0.37-0.87,1.02l0.1,1.41l-0.38,0
				l-0.2-2.76l0.36,0l0.04,0.54C188.62,117.72,188.97,117.53,189.49,117.53z"/>
			<path class="st6" d="M192.37,118.61l0.13,1.72l-0.36,0l-0.03-0.43c-0.15,0.28-0.47,0.46-0.94,0.45c-0.64,0-1.05-0.33-1.09-0.81
				c-0.03-0.43,0.22-0.78,1.03-0.78l0.89,0l-0.01-0.17c-0.03-0.47-0.33-0.73-0.85-0.73c-0.36,0-0.7,0.13-0.91,0.32l-0.19-0.28
				c0.27-0.24,0.67-0.37,1.12-0.37C191.88,117.53,192.32,117.89,192.37,118.61z M192.06,119.49l-0.03-0.45l-0.88,0
				c-0.55,0-0.71,0.21-0.69,0.49c0.02,0.32,0.3,0.52,0.75,0.52C191.63,120.06,191.93,119.86,192.06,119.49z"/>
			<path class="st6" d="M193.16,118.94c-0.06-0.83,0.51-1.41,1.35-1.41c0.48,0,0.89,0.19,1.14,0.55l-0.27,0.19
				c-0.21-0.28-0.52-0.41-0.85-0.41c-0.62,0-1.03,0.43-0.99,1.08c0.05,0.65,0.53,1.08,1.15,1.08c0.33,0,0.62-0.12,0.79-0.4l0.3,0.19
				c-0.2,0.36-0.59,0.55-1.06,0.55C193.88,120.36,193.22,119.77,193.16,118.94z"/>
			<path class="st6" d="M198.07,120.17c-0.14,0.13-0.36,0.19-0.58,0.19c-0.53,0-0.85-0.3-0.89-0.81l-0.13-1.68l-0.5,0l-0.02-0.32
				l0.5,0l-0.05-0.61l0.38,0l0.05,0.61l0.86,0l0.02,0.32l-0.86,0l0.12,1.66c0.02,0.33,0.21,0.51,0.53,0.51
				c0.16,0,0.31-0.05,0.41-0.14L198.07,120.17z"/>
			<path class="st6" d="M200.77,118.62l0.13,1.73l-0.36,0l-0.03-0.43c-0.15,0.29-0.47,0.46-0.94,0.46c-0.64,0-1.05-0.33-1.09-0.81
				c-0.03-0.43,0.22-0.79,1.03-0.79l0.89,0l-0.01-0.17c-0.04-0.48-0.33-0.74-0.85-0.74c-0.36,0-0.7,0.13-0.91,0.33l-0.19-0.28
				c0.27-0.24,0.67-0.37,1.12-0.37C200.28,117.54,200.72,117.9,200.77,118.62z M200.46,119.51l-0.03-0.46l-0.88,0
				c-0.55,0-0.71,0.21-0.69,0.5c0.02,0.32,0.3,0.52,0.75,0.53C200.04,120.08,200.34,119.88,200.46,119.51z"/>
			<path class="st6" d="M203.41,120.19c-0.14,0.13-0.36,0.2-0.58,0.19c-0.53,0-0.85-0.3-0.89-0.81l-0.13-1.69l-0.5,0l-0.02-0.32
				l0.5,0l-0.05-0.61l0.38,0l0.05,0.61l0.86,0l0.02,0.32l-0.86,0l0.13,1.67c0.03,0.33,0.21,0.51,0.53,0.51
				c0.16,0,0.31-0.05,0.41-0.14L203.41,120.19z"/>
			<path class="st6" d="M203.63,118.96c-0.06-0.83,0.5-1.42,1.32-1.42c0.82,0,1.48,0.59,1.54,1.42c0.06,0.83-0.49,1.42-1.32,1.42
				C204.35,120.39,203.69,119.79,203.63,118.96z M206.11,118.97c-0.05-0.65-0.53-1.09-1.13-1.09c-0.6,0-1.02,0.43-0.97,1.09
				c0.05,0.65,0.53,1.09,1.13,1.09C205.75,120.06,206.16,119.62,206.11,118.97z"/>
			<path class="st6" d="M206.97,120.05l0.15-0.3c0.24,0.18,0.63,0.32,1.03,0.32c0.54,0,0.74-0.18,0.72-0.46
				c-0.06-0.73-1.84-0.16-1.93-1.27c-0.04-0.46,0.33-0.8,1.05-0.8c0.36,0,0.77,0.1,1.02,0.26l-0.14,0.3
				c-0.26-0.17-0.56-0.24-0.85-0.24c-0.51,0-0.72,0.2-0.7,0.46c0.06,0.76,1.84,0.19,1.93,1.27c0.04,0.49-0.37,0.8-1.1,0.8
				C207.67,120.4,207.21,120.25,206.97,120.05z"/>
			<path class="st6" d="M213.66,116.42l0.32,3.97l-0.36,0l-0.04-0.56c-0.2,0.38-0.57,0.58-1.04,0.58c-0.8,0-1.45-0.59-1.52-1.43
				c-0.07-0.85,0.49-1.42,1.29-1.42c0.45,0,0.85,0.19,1.12,0.56l-0.14-1.69L213.66,116.42z M213.5,118.98
				c-0.05-0.66-0.54-1.1-1.13-1.1c-0.6,0-1.01,0.44-0.96,1.09c0.05,0.66,0.54,1.1,1.14,1.1
				C213.13,120.08,213.55,119.64,213.5,118.98z"/>
			<path class="st6" d="M217.36,117.58l0.23,2.82l-0.36,0l-0.04-0.51c-0.17,0.34-0.52,0.54-0.97,0.54c-0.72,0-1.22-0.41-1.29-1.21
				l-0.13-1.63l0.38,0l0.13,1.6c0.05,0.6,0.39,0.91,0.92,0.91c0.59,0,0.93-0.38,0.88-1.02l-0.12-1.48L217.36,117.58z"/>
			<path class="st6" d="M218.26,118.99c-0.07-0.84,0.49-1.43,1.32-1.43c0.82,0,1.48,0.6,1.55,1.44c0.07,0.84-0.49,1.44-1.31,1.44
				C218.99,120.43,218.33,119.83,218.26,118.99z M220.74,119c-0.06-0.66-0.54-1.1-1.14-1.1c-0.6,0-1.01,0.44-0.96,1.1
				c0.05,0.66,0.54,1.1,1.14,1.1C220.39,120.1,220.79,119.66,220.74,119z"/>
			<path class="st6" d="M222.25,120.15c0.01,0.09-0.01,0.16-0.05,0.31l-0.16,0.74l-0.26,0l0.12-0.78c-0.12-0.03-0.2-0.13-0.22-0.27
				c-0.01-0.17,0.1-0.29,0.26-0.29C222.11,119.86,222.23,119.99,222.25,120.15z"/>
			<path class="st6" d="M224.08,116.7c-0.01-0.15,0.1-0.27,0.26-0.27c0.16,0,0.29,0.12,0.3,0.26c0.01,0.16-0.09,0.28-0.25,0.28
				C224.23,116.97,224.1,116.85,224.08,116.7z M224.25,117.59l0.38,0l0.24,2.84l-0.38,0L224.25,117.59z"/>
			<path class="st6" d="M228.38,118.79l0.14,1.65l-0.38,0l-0.14-1.61c-0.05-0.6-0.39-0.91-0.92-0.91c-0.61,0-0.95,0.38-0.9,1.02
				l0.13,1.49l-0.38,0l-0.24-2.84l0.36,0l0.04,0.52c0.17-0.35,0.54-0.54,1.02-0.54C227.81,117.57,228.31,117.97,228.38,118.79z"/>
			<path class="st6" d="M233.09,117.6l-1,2.85l-0.39,0l-1.5-2.85l0.4,0l1.27,2.43l0.85-2.43L233.09,117.6z"/>
			<path class="st6" d="M236.13,119.15l-2.36-0.01c0.1,0.6,0.58,0.99,1.2,1c0.34,0,0.64-0.12,0.83-0.37l0.24,0.25
				c-0.22,0.3-0.6,0.47-1.05,0.46c-0.88,0-1.53-0.61-1.61-1.46c-0.07-0.85,0.46-1.45,1.25-1.45c0.79,0,1.42,0.59,1.49,1.45
				C236.13,119.06,236.13,119.11,236.13,119.15z M233.75,118.86l2,0c-0.1-0.56-0.53-0.95-1.09-0.95
				C234.12,117.91,233.75,118.3,233.75,118.86z"/>
			<path class="st6" d="M236.68,116.43l0.38,0l0.36,4.03l-0.38,0L236.68,116.43z"/>
			<path class="st6" d="M242.33,118.82l0.15,1.66l-0.38,0l-0.15-1.63c-0.06-0.61-0.39-0.92-0.93-0.92c-0.61,0-0.95,0.38-0.89,1.03
				l0.14,1.5l-0.38,0l-0.26-2.86l0.36,0l0.05,0.53c0.17-0.35,0.53-0.55,1.02-0.55C241.74,117.59,242.25,117.99,242.33,118.82z"/>
			<path class="st6" d="M243.09,116.71c-0.01-0.15,0.1-0.27,0.25-0.27c0.16,0,0.29,0.12,0.3,0.27c0.01,0.16-0.09,0.28-0.25,0.28
				C243.23,116.98,243.1,116.86,243.09,116.71z M243.25,117.61l0.38,0l0.26,2.87l-0.38,0L243.25,117.61z"/>
			<path class="st6" d="M247.4,118.83l0.16,1.67l-0.38,0l-0.15-1.63c-0.06-0.61-0.4-0.92-0.93-0.92c-0.61,0-0.95,0.38-0.89,1.04
				l0.14,1.51l-0.38,0l-0.37-4.06l0.38,0l0.16,1.68c0.18-0.33,0.53-0.52,1.01-0.52C246.81,117.59,247.32,118,247.4,118.83z"/>
			<path class="st6" d="M248.15,116.71c-0.01-0.15,0.1-0.27,0.25-0.27c0.16,0,0.29,0.12,0.3,0.27c0.01,0.16-0.09,0.29-0.25,0.29
				C248.3,116.99,248.17,116.86,248.15,116.71z M248.32,117.62l0.38,0l0.27,2.88l-0.38,0L248.32,117.62z"/>
			<path class="st6" d="M249.65,116.43l0.38,0l0.38,4.07l-0.38,0L249.65,116.43z"/>
			<path class="st6" d="M254.03,117.6l0.04,0.38c-0.03,0-0.06-0.01-0.09-0.01c-0.59,0-0.91,0.38-0.85,1.06l0.14,1.47l-0.38,0
				l-0.27-2.89l0.36,0l0.05,0.57C253.17,117.8,253.51,117.6,254.03,117.6z"/>
			<path class="st6" d="M254.54,116.71c-0.01-0.15,0.1-0.28,0.25-0.28c0.16,0,0.29,0.12,0.3,0.27c0.02,0.16-0.09,0.29-0.25,0.29
				C254.69,116.99,254.56,116.86,254.54,116.71z M254.72,117.62l0.38,0l0.28,2.9l-0.38,0L254.72,117.62z"/>
			<path class="st6" d="M258.61,116.44l0.4,4.09l-0.36,0l-0.06-0.57c-0.19,0.39-0.56,0.6-1.03,0.6c-0.8,0-1.46-0.6-1.55-1.48
				c-0.08-0.88,0.46-1.47,1.26-1.47c0.45,0,0.85,0.2,1.13,0.57l-0.17-1.74L258.61,116.44z M258.49,119.08
				c-0.07-0.68-0.56-1.13-1.15-1.13c-0.6,0-1.01,0.45-0.94,1.13c0.07,0.68,0.56,1.13,1.16,1.13
				C258.15,120.21,258.56,119.76,258.49,119.08z"/>
			<path class="st6" d="M262.4,119.21l-2.36-0.01c0.1,0.61,0.59,1.01,1.21,1.01c0.34,0,0.64-0.13,0.83-0.38l0.24,0.26
				c-0.22,0.31-0.6,0.47-1.04,0.47c-0.88,0-1.54-0.62-1.62-1.48c-0.08-0.86,0.44-1.47,1.23-1.47c0.79,0,1.42,0.6,1.51,1.48
				C262.39,119.12,262.39,119.16,262.4,119.21z M260.01,118.91l2,0c-0.1-0.57-0.54-0.97-1.1-0.97
				C260.37,117.95,260,118.34,260.01,118.91z"/>
			<path class="st6" d="M265.74,118.86l0.17,1.69l-0.38,0l-0.16-1.65c-0.06-0.62-0.4-0.93-0.94-0.93c-0.61,0-0.95,0.39-0.88,1.05
				l0.15,1.53l-0.38,0l-0.29-2.91l0.36,0l0.05,0.54c0.17-0.35,0.53-0.56,1.02-0.56C265.15,117.61,265.66,118.02,265.74,118.86z"/>
			<path class="st6" d="M266.52,120.22l0.14-0.31c0.24,0.18,0.64,0.33,1.03,0.33c0.54,0,0.74-0.19,0.71-0.48
				c-0.08-0.76-1.84-0.17-1.96-1.32c-0.05-0.48,0.31-0.83,1.03-0.83c0.36,0,0.77,0.11,1.02,0.27l-0.14,0.32
				c-0.26-0.18-0.57-0.25-0.85-0.25c-0.51,0-0.71,0.2-0.69,0.48c0.08,0.79,1.85,0.2,1.96,1.32c0.05,0.51-0.35,0.83-1.08,0.83
				C267.24,120.58,266.77,120.43,266.52,120.22z"/>
			<path class="st6" d="M275.45,118.88l0.17,1.7l-0.38,0l-0.17-1.66c-0.06-0.62-0.4-0.94-0.91-0.94c-0.58,0-0.9,0.39-0.83,1.06
				l0.16,1.54l-0.38,0l-0.17-1.66c-0.06-0.62-0.39-0.94-0.91-0.94c-0.57,0-0.9,0.39-0.84,1.06l0.16,1.54l-0.38,0l-0.3-2.93l0.36,0
				l0.05,0.53c0.16-0.35,0.51-0.56,0.98-0.55c0.47,0,0.85,0.21,1.06,0.62c0.16-0.38,0.54-0.62,1.05-0.62
				C274.87,117.62,275.37,118.04,275.45,118.88z"/>
			<path class="st6" d="M278.61,118.77l0.19,1.82l-0.36,0l-0.05-0.46c-0.14,0.3-0.45,0.48-0.92,0.48c-0.64,0-1.06-0.35-1.12-0.86
				c-0.05-0.45,0.19-0.83,1-0.83l0.9,0l-0.02-0.18c-0.05-0.5-0.35-0.78-0.88-0.78c-0.36,0-0.69,0.13-0.9,0.34l-0.2-0.3
				c0.26-0.25,0.66-0.4,1.1-0.39C278.08,117.63,278.53,118.01,278.61,118.77z M278.32,119.71l-0.05-0.48l-0.88,0
				c-0.55,0-0.7,0.22-0.67,0.52c0.04,0.34,0.32,0.55,0.77,0.55C277.92,120.3,278.21,120.09,278.32,119.71z"/>
			<path class="st6" d="M279.4,116.44l0.38,0l0.43,4.15l-0.38,0L279.4,116.44z"/>
			<path class="st6" d="M280.84,119.13c-0.09-0.87,0.45-1.49,1.28-1.49c0.82,0,1.49,0.62,1.59,1.5c0.09,0.88-0.45,1.5-1.27,1.5
				C281.61,120.63,280.93,120,280.84,119.13z M283.32,119.13c-0.07-0.69-0.57-1.15-1.16-1.15c-0.6,0-1,0.46-0.93,1.15
				c0.07,0.69,0.57,1.15,1.17,1.15C283,120.28,283.39,119.82,283.32,119.13z"/>
			<path class="st6" d="M285.74,117.64l0.04,0.39c-0.03,0-0.06-0.01-0.09-0.01c-0.59,0-0.91,0.39-0.83,1.09l0.16,1.5l-0.38,0
				l-0.31-2.95l0.36,0l0.06,0.58C284.89,117.84,285.23,117.64,285.74,117.64z"/>
			<path class="st6" d="M289.01,117.66l0.32,2.96l-0.36,0l-0.06-0.54c-0.16,0.36-0.5,0.57-0.95,0.57c-0.72,0-1.23-0.43-1.33-1.27
				l-0.18-1.71l0.38,0l0.18,1.68c0.07,0.63,0.41,0.95,0.95,0.95c0.59,0,0.92-0.4,0.84-1.07l-0.17-1.55L289.01,117.66z"/>
			<path class="st6" d="M294.87,118.92l0.19,1.72l-0.38,0l-0.18-1.68c-0.07-0.63-0.4-0.95-0.91-0.95c-0.58,0-0.9,0.39-0.83,1.07
				l0.17,1.56l-0.38,0l-0.18-1.68c-0.07-0.63-0.4-0.95-0.92-0.95c-0.57,0-0.9,0.39-0.83,1.07l0.17,1.56l-0.38,0l-0.32-2.96l0.36,0
				l0.06,0.54c0.16-0.35,0.5-0.56,0.97-0.56c0.47,0,0.85,0.21,1.07,0.63c0.16-0.38,0.54-0.63,1.05-0.63
				C294.28,117.65,294.77,118.06,294.87,118.92z"/>
			<path class="st6" d="M295.82,120.36c-0.02-0.18,0.1-0.31,0.25-0.3c0.16,0,0.3,0.13,0.32,0.31c0.02,0.18-0.1,0.31-0.26,0.31
				C295.98,120.67,295.84,120.54,295.82,120.36z"/>
		</g>
		<g>
			<path class="st6" d="M77.49,199.82l0.38-0.01l0.26,3.24l2.03-0.03l0.03,0.33l-2.41,0.04L77.49,199.82z"/>
			<path class="st6" d="M80.32,202c-0.06-0.8,0.48-1.37,1.28-1.39c0.8-0.01,1.43,0.54,1.49,1.34c0.06,0.8-0.47,1.38-1.27,1.39
				C81.02,203.36,80.38,202.8,80.32,202z M82.71,201.96c-0.05-0.63-0.51-1.04-1.09-1.03c-0.58,0.01-0.98,0.44-0.93,1.06
				c0.05,0.63,0.52,1.04,1.1,1.03C82.37,203.02,82.76,202.59,82.71,201.96z"/>
			<path class="st6" d="M85.09,200.56l0.03,0.35c-0.03,0-0.06,0-0.09,0c-0.57,0.01-0.89,0.37-0.83,1.01l0.11,1.37l-0.37,0.01
				l-0.22-2.69l0.35-0.01l0.04,0.53C84.26,200.76,84.59,200.56,85.09,200.56z"/>
			<path class="st6" d="M88.22,201.99l-2.27,0.04c0.09,0.56,0.55,0.93,1.15,0.92c0.33-0.01,0.62-0.13,0.8-0.37l0.23,0.23
				c-0.22,0.29-0.58,0.45-1.01,0.46c-0.85,0.01-1.47-0.55-1.54-1.35c-0.07-0.8,0.45-1.38,1.22-1.39c0.76-0.01,1.36,0.54,1.43,1.35
				C88.22,201.9,88.22,201.94,88.22,201.99z M85.92,201.75l1.93-0.03c-0.09-0.53-0.51-0.89-1.04-0.88
				C86.28,200.85,85.93,201.22,85.92,201.75z"/>
			<path class="st6" d="M93.44,201.57l0.13,1.57l-0.37,0.01l-0.13-1.53c-0.05-0.57-0.36-0.86-0.85-0.85
				c-0.56,0.01-0.88,0.37-0.83,0.99l0.12,1.42l-0.37,0.01l-0.13-1.53c-0.05-0.57-0.36-0.86-0.86-0.85
				c-0.55,0.01-0.88,0.37-0.83,0.99l0.12,1.42l-0.37,0.01l-0.23-2.7l0.35-0.01l0.04,0.49c0.16-0.33,0.5-0.52,0.95-0.53
				c0.45-0.01,0.82,0.18,1.01,0.55c0.17-0.35,0.54-0.58,1.03-0.59C92.91,200.42,93.37,200.79,93.44,201.57z"/>
			<path class="st6" d="M95.54,199.54c-0.01-0.14,0.1-0.26,0.25-0.26c0.15,0,0.28,0.11,0.29,0.25c0.01,0.15-0.09,0.27-0.25,0.27
				C95.68,199.8,95.56,199.68,95.54,199.54z M95.7,200.39l0.37-0.01l0.23,2.71l-0.37,0.01L95.7,200.39z"/>
			<path class="st6" d="M99.96,201.68c0.07,0.83-0.46,1.39-1.23,1.41c-0.43,0.01-0.82-0.17-1.08-0.52l0.13,1.51l-0.37,0.01
				l-0.32-3.72l0.35-0.01l0.05,0.54c0.19-0.37,0.55-0.57,1-0.58C99.26,200.31,99.89,200.86,99.96,201.68z M99.6,201.69
				c-0.06-0.63-0.53-1.05-1.11-1.04c-0.58,0.01-0.98,0.45-0.92,1.08c0.06,0.63,0.53,1.05,1.11,1.04
				C99.25,202.75,99.65,202.32,99.6,201.69z"/>
			<path class="st6" d="M100.43,202.72l0.14-0.29c0.23,0.17,0.61,0.3,0.99,0.29c0.52-0.01,0.71-0.19,0.69-0.46
				c-0.06-0.71-1.78-0.12-1.87-1.2c-0.04-0.44,0.31-0.78,1.01-0.79c0.35-0.01,0.74,0.09,0.98,0.24l-0.13,0.3
				c-0.25-0.16-0.54-0.22-0.82-0.22c-0.49,0.01-0.69,0.2-0.67,0.46c0.06,0.73,1.78,0.15,1.87,1.2c0.04,0.47-0.34,0.78-1.05,0.79
				C101.12,203.05,100.67,202.91,100.43,202.72z"/>
			<path class="st6" d="M105.58,200.22l0.25,2.73l-0.35,0.01l-0.04-0.5c-0.16,0.34-0.5,0.53-0.93,0.54
				c-0.69,0.01-1.18-0.37-1.25-1.15l-0.14-1.58l0.37-0.01l0.14,1.55c0.05,0.58,0.38,0.87,0.9,0.86c0.57-0.01,0.89-0.38,0.84-1.01
				l-0.13-1.43L105.58,200.22z"/>
			<path class="st6" d="M111.2,201.28l0.15,1.59l-0.37,0.01l-0.14-1.55c-0.05-0.58-0.37-0.87-0.86-0.86c-0.56,0.01-0.88,0.38-0.82,1
				l0.13,1.44l-0.37,0.01l-0.14-1.55c-0.05-0.58-0.37-0.87-0.87-0.86c-0.55,0.01-0.88,0.38-0.82,1l0.13,1.43l-0.37,0.01l-0.25-2.73
				l0.35-0.01l0.05,0.5c0.16-0.33,0.5-0.53,0.95-0.54c0.45-0.01,0.82,0.18,1.02,0.56c0.16-0.36,0.53-0.59,1.02-0.6
				C110.66,200.11,111.13,200.49,111.2,201.28z"/>
			<path class="st6" d="M115.82,198.91l0.36,3.88l-0.35,0.01l-0.05-0.54c-0.19,0.38-0.55,0.58-1,0.59
				c-0.78,0.01-1.41-0.55-1.49-1.38c-0.08-0.83,0.45-1.4,1.22-1.42c0.43-0.01,0.82,0.17,1.08,0.53l-0.16-1.65L115.82,198.91z
				 M115.7,201.42c-0.06-0.64-0.53-1.06-1.11-1.05c-0.58,0.01-0.97,0.45-0.91,1.09c0.06,0.64,0.53,1.06,1.11,1.05
				C115.36,202.5,115.76,202.07,115.7,201.42z"/>
			<path class="st6" d="M116.81,201.41c-0.08-0.82,0.46-1.41,1.25-1.42c0.8-0.01,1.43,0.56,1.51,1.38c0.08,0.82-0.45,1.41-1.25,1.43
				C117.53,202.8,116.89,202.22,116.81,201.41z M119.21,201.37c-0.06-0.65-0.53-1.07-1.11-1.06c-0.58,0.01-0.97,0.45-0.91,1.09
				c0.06,0.64,0.54,1.07,1.12,1.06C118.88,202.45,119.27,202.01,119.21,201.37z"/>
			<path class="st6" d="M120.09,198.83l0.37-0.01l0.37,3.89l-0.37,0.01L120.09,198.83z"/>
			<path class="st6" d="M121.45,201.33c-0.08-0.82,0.45-1.41,1.25-1.43s1.44,0.56,1.52,1.38c0.08,0.82-0.45,1.42-1.24,1.43
				C122.17,202.73,121.53,202.15,121.45,201.33z M123.84,201.29c-0.06-0.65-0.53-1.07-1.11-1.06c-0.58,0.01-0.97,0.45-0.91,1.09
				c0.06,0.65,0.54,1.07,1.12,1.06C123.52,202.38,123.91,201.94,123.84,201.29z"/>
			<path class="st6" d="M126.2,199.84l0.04,0.36c-0.03,0-0.06,0-0.09,0c-0.57,0.01-0.88,0.38-0.82,1.04l0.14,1.41l-0.37,0.01
				l-0.27-2.77l0.35-0.01l0.05,0.54C125.37,200.05,125.7,199.85,126.2,199.84z"/>
			<path class="st6" d="M128.13,202.29l0.14-0.3c0.23,0.17,0.62,0.3,1,0.3c0.52-0.01,0.71-0.19,0.68-0.47
				c-0.07-0.72-1.78-0.13-1.89-1.22c-0.04-0.45,0.3-0.8,1-0.81c0.35-0.01,0.74,0.09,0.99,0.24l-0.13,0.3
				c-0.25-0.16-0.55-0.23-0.82-0.22c-0.49,0.01-0.69,0.21-0.66,0.47c0.07,0.75,1.78,0.16,1.89,1.22c0.05,0.48-0.33,0.8-1.04,0.81
				C128.82,202.63,128.37,202.48,128.13,202.29z"/>
			<path class="st6" d="M130.62,198.91c-0.01-0.14,0.09-0.27,0.24-0.27c0.15,0,0.28,0.11,0.29,0.25c0.02,0.15-0.09,0.28-0.24,0.28
				C130.77,199.18,130.64,199.06,130.62,198.91z M130.79,199.78l0.37-0.01l0.28,2.78l-0.37,0.01L130.79,199.78z"/>
			<path class="st6" d="M133.88,202.35c-0.13,0.13-0.34,0.2-0.55,0.2c-0.51,0.01-0.83-0.28-0.88-0.8l-0.17-1.68l-0.49,0.01
				l-0.03-0.32l0.49-0.01l-0.06-0.61l0.37-0.01l0.06,0.61l0.83-0.01l0.03,0.32l-0.83,0.01l0.17,1.66c0.03,0.33,0.22,0.51,0.52,0.5
				c0.15,0,0.3-0.05,0.39-0.15L133.88,202.35z"/>
			<path class="st6" d="M137.8,200.73l0.18,1.73l-0.35,0.01l-0.04-0.44c-0.14,0.29-0.44,0.47-0.89,0.48
				c-0.62,0.01-1.03-0.31-1.08-0.8c-0.04-0.43,0.19-0.79,0.97-0.81l0.86-0.01l-0.02-0.17c-0.05-0.48-0.34-0.73-0.85-0.73
				c-0.35,0.01-0.67,0.14-0.87,0.34l-0.19-0.28c0.25-0.24,0.64-0.39,1.07-0.4C137.29,199.65,137.72,200,137.8,200.73z
				 M137.52,201.63l-0.05-0.46l-0.85,0.01c-0.53,0.01-0.68,0.22-0.65,0.51c0.03,0.32,0.31,0.52,0.74,0.51
				C137.13,202.2,137.41,201.99,137.52,201.63z"/>
			<path class="st6" d="M143.3,200.75l0.17,1.63l-0.37,0.01l-0.17-1.59c-0.06-0.59-0.38-0.89-0.87-0.88
				c-0.56,0.01-0.87,0.39-0.8,1.03l0.15,1.47l-0.37,0.01l-0.16-1.59c-0.06-0.59-0.38-0.89-0.88-0.88c-0.55,0.01-0.87,0.39-0.81,1.03
				l0.15,1.47l-0.37,0.01l-0.29-2.8l0.35-0.01l0.05,0.51c0.16-0.34,0.49-0.54,0.94-0.55c0.45-0.01,0.82,0.18,1.03,0.57
				c0.16-0.37,0.52-0.6,1.01-0.61C142.74,199.56,143.21,199.94,143.3,200.75z"/>
			<path class="st6" d="M146.71,201.03l-2.27,0.04c0.1,0.59,0.58,0.97,1.17,0.96c0.33-0.01,0.61-0.13,0.79-0.38l0.23,0.24
				c-0.21,0.3-0.57,0.47-1,0.48c-0.85,0.01-1.49-0.58-1.58-1.41c-0.09-0.83,0.41-1.43,1.18-1.45c0.76-0.01,1.38,0.56,1.47,1.4
				C146.71,200.95,146.71,200.99,146.71,201.03z M144.41,200.79l1.93-0.03c-0.1-0.55-0.53-0.93-1.06-0.92
				C144.75,199.85,144.4,200.24,144.41,200.79z"/>
			<path class="st6" d="M149.02,202.12c-0.13,0.14-0.34,0.2-0.55,0.21c-0.51,0.01-0.83-0.29-0.88-0.81l-0.18-1.7l-0.49,0.01
				l-0.03-0.32l0.49-0.01l-0.06-0.61l0.37-0.01l0.06,0.61l0.83-0.01l0.03,0.32l-0.83,0.01l0.18,1.68c0.03,0.33,0.22,0.51,0.53,0.51
				c0.15,0,0.29-0.05,0.39-0.15L149.02,202.12z"/>
		</g>
		<g>
			<path class="st6" d="M88.88,282.51l0.38-0.02l0.33,3.23l2.03-0.08l0.03,0.33l-2.41,0.1L88.88,282.51z"/>
			<path class="st6" d="M91.76,284.62c-0.08-0.79,0.45-1.38,1.24-1.42c0.8-0.03,1.44,0.51,1.52,1.3c0.08,0.79-0.44,1.39-1.24,1.42
				C92.49,285.96,91.84,285.42,91.76,284.62z M94.15,284.53c-0.06-0.63-0.54-1.03-1.12-1c-0.58,0.02-0.97,0.46-0.9,1.09
				c0.06,0.63,0.54,1.03,1.12,1C93.83,285.59,94.22,285.15,94.15,284.53z"/>
			<path class="st6" d="M96.5,283.06l0.04,0.35c-0.03,0-0.06,0-0.09,0c-0.57,0.02-0.88,0.4-0.81,1.03l0.14,1.37l-0.37,0.01
				l-0.28-2.68l0.35-0.01l0.05,0.53C95.67,283.28,96,283.08,96.5,283.06z"/>
			<path class="st6" d="M99.66,284.41l-2.27,0.09c0.1,0.56,0.57,0.92,1.17,0.89c0.33-0.01,0.61-0.14,0.79-0.39l0.23,0.23
				c-0.21,0.3-0.57,0.46-1,0.48c-0.85,0.03-1.49-0.51-1.57-1.31c-0.08-0.8,0.42-1.39,1.18-1.42c0.76-0.03,1.38,0.5,1.46,1.31
				C99.66,284.33,99.66,284.37,99.66,284.41z M97.36,284.23l1.93-0.08c-0.1-0.52-0.53-0.88-1.06-0.85
				C97.7,283.32,97.35,283.71,97.36,284.23z"/>
			<path class="st6" d="M104.87,283.87l0.17,1.57l-0.37,0.01l-0.16-1.53c-0.06-0.57-0.38-0.85-0.87-0.83
				c-0.56,0.02-0.87,0.4-0.8,1.01l0.15,1.41l-0.37,0.01l-0.16-1.53c-0.06-0.57-0.38-0.85-0.88-0.83c-0.55,0.02-0.87,0.4-0.81,1.01
				l0.15,1.41l-0.37,0.01l-0.29-2.69l0.35-0.01l0.05,0.49c0.16-0.33,0.49-0.53,0.94-0.55c0.45-0.02,0.82,0.16,1.03,0.53
				c0.16-0.36,0.52-0.59,1.01-0.61C104.31,282.73,104.78,283.09,104.87,283.87z"/>
			<path class="st6" d="M106.93,281.79c-0.02-0.14,0.09-0.26,0.24-0.27c0.15-0.01,0.28,0.1,0.3,0.24c0.02,0.15-0.08,0.27-0.24,0.28
				C107.07,282.04,106.94,281.93,106.93,281.79z M107.1,282.64l0.37-0.02l0.29,2.71l-0.37,0.01L107.1,282.64z"/>
			<path class="st6" d="M111.39,283.82c0.09,0.83-0.43,1.41-1.2,1.44c-0.43,0.02-0.83-0.15-1.09-0.49l0.17,1.51l-0.37,0.01
				l-0.41-3.71l0.35-0.01l0.06,0.54c0.18-0.37,0.54-0.58,0.99-0.6C110.66,282.47,111.3,283,111.39,283.82z M111.03,283.83
				c-0.07-0.63-0.56-1.04-1.13-1.01c-0.58,0.02-0.97,0.47-0.9,1.1c0.07,0.63,0.55,1.04,1.13,1.01
				C110.7,284.91,111.1,284.47,111.03,283.83z"/>
			<path class="st6" d="M111.88,284.85l0.13-0.3c0.24,0.16,0.62,0.28,1,0.27c0.52-0.02,0.71-0.21,0.68-0.47
				c-0.08-0.71-1.78-0.08-1.9-1.15c-0.05-0.44,0.3-0.79,0.99-0.82c0.35-0.01,0.74,0.07,0.99,0.21l-0.13,0.3
				c-0.26-0.16-0.55-0.21-0.83-0.2c-0.49,0.02-0.69,0.22-0.66,0.48c0.08,0.73,1.78,0.11,1.9,1.15c0.05,0.47-0.33,0.79-1.04,0.82
				C112.58,285.16,112.13,285.03,111.88,284.85z"/>
			<path class="st6" d="M116.97,282.22l0.31,2.72l-0.35,0.01l-0.06-0.5c-0.15,0.34-0.48,0.54-0.92,0.56
				c-0.69,0.03-1.19-0.34-1.28-1.12l-0.18-1.58l0.37-0.02l0.17,1.54c0.06,0.58,0.4,0.86,0.91,0.84c0.57-0.02,0.88-0.4,0.81-1.03
				l-0.16-1.43L116.97,282.22z"/>
			<path class="st6" d="M122.62,283.14l0.18,1.59l-0.37,0.01l-0.18-1.55c-0.07-0.58-0.39-0.86-0.88-0.84
				c-0.56,0.02-0.87,0.4-0.8,1.02l0.16,1.43l-0.37,0.01l-0.18-1.55c-0.07-0.58-0.39-0.86-0.88-0.84c-0.55,0.02-0.87,0.4-0.8,1.02
				l0.16,1.43l-0.37,0.01l-0.31-2.73l0.35-0.01l0.06,0.5c0.15-0.33,0.48-0.54,0.94-0.56c0.45-0.02,0.82,0.16,1.03,0.54
				c0.16-0.36,0.52-0.6,1.01-0.62C122.05,281.99,122.53,282.35,122.62,283.14z"/>
			<path class="st6" d="M127.19,280.66l0.45,3.87l-0.35,0.01l-0.06-0.54c-0.18,0.38-0.53,0.59-0.98,0.61
				c-0.78,0.03-1.42-0.51-1.52-1.34c-0.1-0.83,0.42-1.41,1.19-1.45c0.43-0.02,0.83,0.15,1.1,0.5l-0.19-1.65L127.19,280.66z
				 M127.12,283.17c-0.07-0.64-0.56-1.05-1.13-1.03c-0.58,0.02-0.96,0.47-0.89,1.11c0.07,0.64,0.56,1.05,1.14,1.03
				C126.81,284.26,127.19,283.81,127.12,283.17z"/>
			<path class="st6" d="M128.23,283.13c-0.1-0.81,0.43-1.42,1.22-1.45c0.8-0.03,1.45,0.52,1.54,1.34c0.1,0.82-0.42,1.42-1.22,1.46
				C128.98,284.5,128.33,283.94,128.23,283.13z M130.62,283.03c-0.08-0.64-0.55-1.05-1.13-1.03c-0.58,0.02-0.96,0.47-0.89,1.11
				c0.08,0.64,0.56,1.05,1.14,1.03C130.32,284.12,130.7,283.67,130.62,283.03z"/>
			<path class="st6" d="M131.45,280.48l0.37-0.02l0.46,3.88l-0.37,0.01L131.45,280.48z"/>
			<path class="st6" d="M132.87,282.94c-0.1-0.82,0.42-1.42,1.22-1.46c0.8-0.03,1.45,0.52,1.55,1.34c0.1,0.82-0.42,1.43-1.21,1.46
				C133.62,284.32,132.96,283.75,132.87,282.94z M135.26,282.84c-0.08-0.65-0.56-1.06-1.14-1.03c-0.58,0.02-0.96,0.47-0.88,1.12
				c0.08,0.64,0.56,1.06,1.14,1.03C134.96,283.93,135.33,283.48,135.26,282.84z"/>
			<path class="st6" d="M137.58,281.33l0.04,0.36c-0.03,0-0.06,0-0.09,0c-0.57,0.02-0.87,0.41-0.79,1.06l0.17,1.41l-0.37,0.01
				l-0.33-2.76l0.35-0.01l0.06,0.54C136.76,281.56,137.08,281.35,137.58,281.33z"/>
			<path class="st6" d="M139.56,283.74l0.13-0.3c0.24,0.16,0.62,0.29,1,0.27c0.52-0.02,0.71-0.21,0.67-0.48
				c-0.09-0.72-1.78-0.08-1.91-1.18c-0.05-0.45,0.29-0.81,0.98-0.83c0.35-0.01,0.75,0.07,0.99,0.22l-0.12,0.31
				c-0.26-0.16-0.55-0.22-0.83-0.2c-0.49,0.02-0.68,0.22-0.65,0.49c0.09,0.75,1.78,0.11,1.91,1.18c0.06,0.48-0.32,0.81-1.03,0.84
				C140.26,284.05,139.81,283.92,139.56,283.74z"/>
			<path class="st6" d="M141.98,280.29c-0.02-0.14,0.09-0.27,0.24-0.28c0.15-0.01,0.28,0.1,0.3,0.25c0.02,0.15-0.08,0.28-0.24,0.29
				C142.13,280.55,142,280.44,141.98,280.29z M142.17,281.16l0.37-0.02l0.34,2.77l-0.37,0.01L142.17,281.16z"/>
			<path class="st6" d="M145.31,283.65c-0.13,0.14-0.34,0.21-0.55,0.22c-0.51,0.02-0.83-0.26-0.9-0.78l-0.21-1.68l-0.49,0.02
				l-0.04-0.32l0.49-0.02l-0.07-0.61l0.37-0.02l0.07,0.61l0.83-0.03l0.04,0.32l-0.83,0.03l0.2,1.66c0.04,0.33,0.23,0.5,0.53,0.49
				c0.15-0.01,0.29-0.06,0.39-0.16L145.31,283.65z"/>
			<path class="st6" d="M149.2,281.93l0.22,1.73l-0.35,0.01l-0.05-0.43c-0.13,0.29-0.43,0.48-0.88,0.5
				c-0.62,0.02-1.03-0.29-1.09-0.77c-0.05-0.43,0.17-0.8,0.95-0.83l0.86-0.04l-0.02-0.17c-0.06-0.48-0.35-0.73-0.86-0.7
				c-0.35,0.01-0.67,0.16-0.86,0.37l-0.2-0.27c0.24-0.25,0.63-0.4,1.06-0.42C148.66,280.87,149.11,281.21,149.2,281.93z
				 M148.94,282.84l-0.06-0.46l-0.85,0.03c-0.53,0.02-0.67,0.24-0.64,0.53c0.04,0.32,0.32,0.51,0.75,0.5
				C148.56,283.42,148.84,283.21,148.94,282.84z"/>
			<path class="st6" d="M154.69,281.82l0.21,1.62l-0.37,0.01l-0.2-1.58c-0.07-0.59-0.4-0.88-0.89-0.86
				c-0.56,0.02-0.86,0.41-0.78,1.05l0.18,1.47l-0.37,0.01l-0.2-1.58c-0.07-0.59-0.4-0.88-0.9-0.86c-0.55,0.02-0.86,0.41-0.78,1.05
				l0.18,1.46l-0.37,0.01l-0.35-2.79l0.35-0.01l0.06,0.51c0.15-0.34,0.48-0.55,0.93-0.57c0.45-0.02,0.82,0.16,1.04,0.55
				c0.15-0.37,0.51-0.61,1-0.63C154.11,280.64,154.59,281.01,154.69,281.82z"/>
			<path class="st6" d="M158.12,282.02l-2.27,0.09c0.12,0.58,0.6,0.95,1.19,0.93c0.33-0.01,0.61-0.15,0.79-0.4l0.24,0.24
				c-0.2,0.31-0.56,0.48-0.99,0.5c-0.85,0.03-1.5-0.54-1.61-1.37c-0.11-0.83,0.38-1.44,1.15-1.48c0.76-0.03,1.39,0.53,1.5,1.37
				C158.11,281.93,158.11,281.98,158.12,282.02z M155.81,281.83l1.93-0.08c-0.12-0.55-0.55-0.91-1.08-0.89
				C156.12,280.88,155.78,281.28,155.81,281.83z"/>
			<path class="st6" d="M160.45,283.04c-0.13,0.14-0.34,0.21-0.55,0.22c-0.51,0.02-0.83-0.27-0.9-0.78l-0.22-1.7l-0.49,0.02
				l-0.04-0.32l0.49-0.02l-0.08-0.61l0.37-0.02l0.08,0.61l0.83-0.03l0.04,0.32l-0.83,0.03l0.21,1.67c0.04,0.33,0.23,0.51,0.54,0.49
				c0.15-0.01,0.29-0.06,0.38-0.16L160.45,283.04z"/>
		</g>
		
			<ellipse transform="matrix(0.9959 -0.0903 0.0903 0.9959 -6.132 21.8977)" class="st17" cx="238.83" cy="78.69" rx="17.53" ry="22.84"/>
		<path class="st8" d="M247.27,77.72c0.63,5.84-2.49,11-6.96,11.53c-4.47,0.53-8.61-3.77-9.23-9.6c-0.63-5.84,2.49-11,6.96-11.53
			C242.51,67.59,246.65,71.89,247.27,77.72z"/>
		<path class="st8" d="M248.88,280.44c0.27,2.49-1.06,4.7-2.98,4.93c-1.91,0.23-3.68-1.61-3.95-4.1c-0.27-2.49,1.06-4.7,2.98-4.93
			C246.85,276.11,248.62,277.95,248.88,280.44z"/>
		<path class="st12" d="M210.15,273.09c0.27,2.49-1.06,4.7-2.98,4.93c-1.91,0.23-3.68-1.61-3.95-4.1c-0.27-2.49,1.06-4.7,2.98-4.93
			C208.11,268.76,209.88,270.6,210.15,273.09z"/>
		<path class="st11" d="M212.11,291.33c0.27,2.49-1.06,4.7-2.98,4.93c-1.91,0.23-3.68-1.61-3.95-4.1c-0.27-2.49,1.06-4.7,2.98-4.93
			C210.07,287,211.84,288.83,212.11,291.33z"/>
		<path class="st8" d="M209.33,89.83c0.19,1.76-0.75,3.31-2.09,3.47c-1.35,0.16-2.59-1.13-2.78-2.89c-0.19-1.76,0.75-3.31,2.09-3.47
			C207.9,86.78,209.15,88.08,209.33,89.83z"/>
		<path class="st8" d="M270.41,93.89c0.19,1.76-0.75,3.31-2.09,3.47c-1.35,0.16-2.59-1.13-2.78-2.89c-0.19-1.76,0.75-3.31,2.09-3.47
			C268.98,90.84,270.23,92.13,270.41,93.89z"/>
		<path class="st11" d="M270.41,76.77c0.19,1.76-0.75,3.31-2.09,3.47c-1.35,0.16-2.59-1.13-2.78-2.89
			c-0.19-1.76,0.75-3.31,2.09-3.47C268.98,73.73,270.23,75.02,270.41,76.77z"/>
		
			<ellipse transform="matrix(0.9976 -0.0688 0.0688 0.9976 -11.5005 5.5785)" class="st12" cx="75.25" cy="169.78" rx="6.94" ry="7.93"/>
		<path class="st18" d="M72.75,169.63c0.08,0.78-0.4,1.49-1.09,1.57c-0.69,0.08-1.31-0.49-1.39-1.27c-0.08-0.78,0.4-1.49,1.09-1.57
			C72.04,168.28,72.66,168.85,72.75,169.63z"/>
		<path class="st18" d="M76.67,169.63c0.08,0.78-0.4,1.49-1.09,1.57c-0.69,0.08-1.31-0.49-1.39-1.27s0.4-1.49,1.09-1.57
			C75.96,168.28,76.58,168.85,76.67,169.63z"/>
		<path class="st18" d="M80.24,169.63c0.08,0.78-0.4,1.49-1.09,1.57c-0.69,0.08-1.31-0.49-1.39-1.27s0.4-1.49,1.09-1.57
			C79.53,168.28,80.15,168.85,80.24,169.63z"/>
		<path class="st12" d="M219.92,65.01c0.19,1.76-0.75,3.31-2.09,3.47c-1.35,0.16-2.59-1.13-2.78-2.89c-0.19-1.76,0.75-3.31,2.1-3.47
			C218.49,61.96,219.73,63.26,219.92,65.01z"/>
		<g>
			<path class="st13" d="M238.48,81.79l-3.23-3.31c-0.28-0.28-0.28-0.75-0.01-1.04c0.27-0.29,0.71-0.3,0.98-0.01l2.14,2.2l3.82-4.89
				c0.24-0.31,0.68-0.36,0.98-0.1c0.3,0.26,0.34,0.72,0.1,1.03L238.48,81.79z"/>
		</g>
		<g>
			<polygon class="st8" points="229,89.97 209.33,89.97 209.33,89.7 228.91,89.7 233.48,85.93 233.64,86.15 			"/>
		</g>
		<g>
			<polygon class="st8" points="233.46,70.72 229.31,65.15 219.92,65.15 219.92,64.88 229.44,64.88 233.66,70.56 			"/>
		</g>
		<g>
			<polygon class="st8" points="247.41,78.81 247.28,78.57 249.54,77.22 265.54,77.22 265.54,77.49 249.61,77.49 			"/>
		</g>
		<g>
			<polygon class="st8" points="265.54,94.6 246.48,94.6 242.61,88.01 242.83,87.86 246.63,94.33 265.54,94.33 			"/>
		</g>
		<path class="st3" d="M111.14,136.34H79.76c-1.6,0-2.94-1.25-3.14-2.92l-3.63-30.4c-0.24-2.05,1.32-3.84,3.28-3.75l31.56,1.46
			c1.54,0.07,2.81,1.3,3,2.92l3.45,28.94C114.52,134.58,113.05,136.34,111.14,136.34z"/>
		<path class="st8" d="M83.27,110.3l1.12,10.56c0.07,0.7,0.56,1.23,1.13,1.24l18.15,0.19c0.7,0.01,1.24-0.75,1.15-1.61l-1.12-10.15
			c-0.08-0.69-0.55-1.21-1.11-1.23l-18.14-0.6C83.74,108.68,83.18,109.44,83.27,110.3z"/>
		<g>
			<path class="st3" d="M95.08,115.67c-0.69,0-1.39-0.18-2.05-0.53l-9.97-4.92c-0.43-0.21-0.62-0.76-0.42-1.22
				c0.2-0.46,0.72-0.65,1.15-0.44l10,4.94c0.94,0.51,1.95,0.44,2.81-0.19l6.78-4.03c0.42-0.25,0.95-0.09,1.18,0.35
				c0.24,0.44,0.09,1-0.33,1.24l-6.72,3.99C96.8,115.39,95.94,115.67,95.08,115.67z"/>
		</g>
		<g>
			
				<ellipse transform="matrix(0.9959 -0.0903 0.0903 0.9959 -8.9638 10.4442)" class="st17" cx="110.9" cy="104.25" rx="10.65" ry="13.88"/>
			<path class="st8" d="M116.03,103.66c0.38,3.55-1.51,6.68-4.23,7.01c-2.72,0.32-5.23-2.29-5.61-5.84
				c-0.38-3.55,1.51-6.68,4.23-7.01C113.13,97.5,115.65,100.11,116.03,103.66z"/>
		</g>
		<g>
			<polygon class="st8" points="188.58,168.52 188.57,167.7 254.37,167.57 250.03,136.14 250.8,136.02 255.27,168.38 254.82,168.39 
							"/>
		</g>
		<g>
			<g>
				<path class="st2" d="M140.53,230.39l1.32-0.01l0.63,5.44l2.87-0.05l0.15,1.26l-4.19,0.08L140.53,230.39z"/>
				<path class="st2" d="M145.39,233.69c-0.23-1.98,0.93-3.46,2.73-3.48c1.8-0.01,3.3,1.42,3.53,3.39c0.23,1.97-0.93,3.44-2.73,3.47
					C147.11,237.11,145.62,235.67,145.39,233.69z M150.31,233.62c-0.15-1.26-1.02-2.11-2.04-2.1c-1.02,0.01-1.69,0.88-1.54,2.15
					c0.15,1.26,1.02,2.12,2.04,2.1C149.79,235.75,150.46,234.88,150.31,233.62z"/>
				<path class="st2" d="M156.68,236.82l-1.32-1.81l-0.07,0l-1.15,0.02l0.21,1.83l-1.32,0.03l-0.77-6.59l2.48-0.02
					c1.53-0.01,2.59,0.89,2.77,2.35c0.12,0.98-0.23,1.7-0.93,2.08l1.53,2.08L156.68,236.82z M154.81,231.52l-1.08,0.01l0.27,2.29
					l1.08-0.01c0.81-0.01,1.17-0.45,1.08-1.16C156.08,231.93,155.62,231.51,154.81,231.52z"/>
				<path class="st2" d="M163.33,235.49l0.14,1.2l-4.43,0.08l-0.77-6.52l4.33-0.03l0.14,1.2l-3.01,0.03l0.17,1.41l2.66-0.03
					l0.14,1.17l-2.66,0.04l0.18,1.5L163.33,235.49z"/>
				<path class="st2" d="M169.73,236.57l-0.47-3.84l-1.3,3.19l-0.6,0.01l-2.05-3.07l0.45,3.78l-1.24,0.02l-0.77-6.46l1.1-0.01
					l2.62,3.98l1.63-4.01l1.09-0.01l0.79,6.39L169.73,236.57z"/>
				<path class="st2" d="M173.87,230.13l1.32-0.01l0.77,6.33l-1.32,0.02L173.87,230.13z"/>
				<path class="st2" d="M181.8,232.35c0.17,1.4-0.68,2.28-2.21,2.3l-1.15,0.02l0.21,1.74l-1.32,0.02l-0.77-6.32l2.48-0.02
					C180.56,230.08,181.63,230.95,181.8,232.35z M180.46,232.37c-0.09-0.69-0.54-1.09-1.35-1.08l-1.08,0.01l0.27,2.19l1.08-0.01
					C180.18,233.46,180.54,233.05,180.46,232.37z"/>
				<path class="st2" d="M182.78,235.71l0.32-1.1c0.53,0.38,1.28,0.63,1.97,0.62c0.79-0.01,1.07-0.3,1.02-0.68
					c-0.14-1.16-3.37-0.32-3.66-2.64c-0.13-1.06,0.54-1.96,2.17-1.97c0.72-0.01,1.48,0.18,2.06,0.54l-0.27,1.1
					c-0.57-0.32-1.14-0.48-1.65-0.47c-0.78,0.01-1.05,0.33-1,0.72c0.14,1.15,3.37,0.32,3.66,2.6c0.13,1.04-0.55,1.94-2.19,1.97
					C184.3,236.41,183.34,236.13,182.78,235.71z"/>
				<path class="st2" d="M188.14,233.5l-0.43-3.47l1.32-0.01l0.43,3.41c0.15,1.17,0.68,1.65,1.48,1.64c0.81-0.01,1.22-0.5,1.07-1.67
					l-0.43-3.39l1.31-0.01l0.43,3.44c0.23,1.81-0.61,2.82-2.24,2.85C189.46,236.31,188.36,235.33,188.14,233.5z"/>
				<path class="st2" d="M200.18,236.02l-0.47-3.64l-1.3,3.03l-0.6,0.01l-2.05-2.91l0.45,3.58l-1.24,0.02l-0.77-6.12l1.1-0.01
					l2.62,3.77l1.63-3.8l1.09-0.01l0.79,6.05L200.18,236.02z"/>
			</g>
		</g>
		<polygon class="st2" points="232.14,237.29 231.26,227.35 237.55,231.93 		"/>
		<g>
			<path class="st2" d="M233.68,242.85c-4.26,0-8.05-4.15-8.64-9.66c-0.3-2.8,0.26-5.54,1.57-7.71c1.35-2.23,3.33-3.61,5.57-3.87
				c2.25-0.27,4.46,0.61,6.25,2.47c1.74,1.81,2.87,4.35,3.17,7.15l0,0c0.63,5.85-2.57,11.04-7.14,11.59
				C234.2,242.83,233.94,242.85,233.68,242.85z M232.96,223.21c-0.2,0-0.4,0.01-0.61,0.04c-1.76,0.21-3.33,1.31-4.42,3.11
				c-1.12,1.86-1.59,4.21-1.33,6.64c0.53,4.93,3.97,8.6,7.67,8.15c3.7-0.44,6.28-4.82,5.75-9.75c-0.26-2.42-1.22-4.61-2.71-6.15
				C236.05,223.92,234.52,223.21,232.96,223.21z"/>
		</g>
		<g>
			<polygon class="st8" points="97.69,256.27 95.87,237.61 129.49,237.61 129.49,238.43 96.74,238.43 98.46,256.19 			"/>
		</g>
		
			<radialGradient id="SVGID_5_" cx="414.8556" cy="245.8443" r="41.6289" gradientTransform="matrix(1.0947 -0.039 0.0225 0.7017 -254.8847 75.2601)" gradientUnits="userSpaceOnUse">
			<stop  offset="0" style="stop-color:#02689B"/>
			<stop  offset="1" style="stop-color:#000000"/>
		</radialGradient>
		<path class="st19" d="M250.36,229.98c0.52,16.13-19.46,29.94-44.63,30.84c-25.17,0.9-45.99-11.46-46.51-27.59
			c-0.52-16.13,19.46-29.94,44.63-30.84C229.02,201.5,249.84,213.85,250.36,229.98z"/>
		<path class="st20" d="M214.57,332.65c-0.79,0.31-1.63,0.49-2.51,0.56l-129.49,9.05c-4.8,0.34-9-3.36-9.53-8.39l-0.93-8.75
			l142.06-9.05l1.43,10.67C215.88,328.87,215.48,330.92,214.57,332.65z"/>
		<path class="st20" d="M162.54,321.28c0.55,7.72-4.2,14.4-10.62,14.91c-6.42,0.51-12.07-5.34-12.62-13.06
			c-0.55-7.72,4.2-14.4,10.62-14.91C156.34,307.71,161.99,313.56,162.54,321.28z"/>
		<path class="st8" d="M158.82,319.71l-8.15-5.81l-7.3,6.78l2.47-0.18l0.94,7.43l10.44-0.76l-0.87-7.27L158.82,319.71z
			 M152.04,326.8c-1.06,0.09-2.01-0.99-2.11-2.42c-0.11-1.42,0.67-2.64,1.74-2.72c1.07-0.09,2.01,0.99,2.11,2.42
			C153.88,325.49,153.1,326.72,152.04,326.8z"/>
		
			<radialGradient id="SVGID_6_" cx="356.7666" cy="369.1113" r="16.8034" gradientTransform="matrix(0.9113 -0.0324 0.0261 0.8109 -183.6547 32.9937)" gradientUnits="userSpaceOnUse">
			<stop  offset="0" style="stop-color:#02689B"/>
			<stop  offset="1" style="stop-color:#000000"/>
		</radialGradient>
		<path class="st21" d="M166.42,320.19c0.24,7.52-6.42,13.87-14.88,14.17c-8.46,0.3-15.51-5.55-15.75-13.08
			c-0.24-7.52,6.42-13.87,14.88-14.17C159.12,306.81,166.17,312.67,166.42,320.19z"/>
		<g>
			<path class="st8" d="M178.21,195.54l-5.85,0.42c-0.53,0.04-0.92,0.52-0.89,1.06l0.49,7.57c0.04,0.56,0.49,0.97,1.02,0.93
				l5.85-0.42c0.52-0.04,0.91-0.51,0.88-1.07l-0.5-7.57C179.18,195.91,178.73,195.5,178.21,195.54z M173.85,203.44
				c0.01,0.23-0.15,0.43-0.37,0.44c-0.22,0.02-0.4-0.16-0.42-0.39l-0.36-5.54c-0.01-0.23,0.15-0.43,0.37-0.44
				c0.22-0.02,0.4,0.16,0.42,0.39L173.85,203.44z M178.24,203.12c0.01,0.23-0.15,0.43-0.37,0.44c-0.22,0.02-0.4-0.16-0.42-0.39
				l-0.36-5.54c-0.01-0.23,0.15-0.43,0.37-0.44c0.22-0.02,0.4,0.16,0.42,0.39L178.24,203.12z"/>
			<path class="st8" d="M178.73,194.91l-7.24,0.43c-0.29,0.02-0.54-0.22-0.56-0.53l0,0c-0.02-0.31,0.21-0.57,0.5-0.59l7.24-0.43
				c0.29-0.02,0.54,0.22,0.56,0.53l0,0C179.25,194.63,179.03,194.89,178.73,194.91z"/>
			<path class="st8" d="M176.6,194.33l-3.05,0.18c-0.22,0.01-0.41-0.16-0.42-0.39l-0.02-0.31c-0.01-0.23,0.15-0.43,0.37-0.44
				l3.05-0.18c0.22-0.01,0.41,0.16,0.42,0.39l0.02,0.31C176.98,194.12,176.82,194.31,176.6,194.33z"/>
		</g>
		<g>
			<path class="st8" d="M190.05,275.18l-5.85,0.42c-0.53,0.04-0.92,0.52-0.89,1.06l0.5,7.57c0.04,0.56,0.49,0.97,1.02,0.93
				l5.85-0.42c0.52-0.04,0.91-0.51,0.87-1.07l-0.49-7.57C191.02,275.56,190.56,275.14,190.05,275.18z M185.68,283.08
				c0.01,0.23-0.15,0.43-0.37,0.44c-0.22,0.02-0.4-0.16-0.42-0.39l-0.36-5.54c-0.01-0.23,0.15-0.43,0.37-0.44
				c0.22-0.02,0.4,0.16,0.42,0.39L185.68,283.08z M190.08,282.77c0.01,0.23-0.15,0.43-0.37,0.44c-0.22,0.02-0.4-0.16-0.42-0.39
				l-0.36-5.54c-0.01-0.23,0.15-0.43,0.37-0.44c0.22-0.02,0.4,0.16,0.42,0.39L190.08,282.77z"/>
			<path class="st8" d="M190.57,274.55l-7.24,0.43c-0.29,0.02-0.54-0.22-0.56-0.53l0,0c-0.02-0.31,0.21-0.57,0.5-0.59l7.24-0.43
				c0.29-0.02,0.54,0.22,0.56,0.53l0,0C191.08,274.27,190.86,274.54,190.57,274.55z"/>
			<path class="st8" d="M188.43,273.97l-3.05,0.18c-0.22,0.01-0.41-0.16-0.42-0.39l-0.02-0.31c-0.01-0.23,0.15-0.43,0.37-0.44
				l3.05-0.18c0.22-0.01,0.41,0.16,0.42,0.39l0.02,0.31C188.82,273.76,188.65,273.95,188.43,273.97z"/>
		</g>
		
			<radialGradient id="SVGID_7_" cx="386.969" cy="221.6046" r="12.8941" gradientTransform="matrix(0.9113 -0.0324 0.0261 0.8109 -183.6547 32.9937)" gradientUnits="userSpaceOnUse">
			<stop  offset="0" style="stop-color:#02689B"/>
			<stop  offset="0.1467" style="stop-color:#024F75"/>
			<stop  offset="0.3356" style="stop-color:#01334B"/>
			<stop  offset="0.5199" style="stop-color:#011D2B"/>
			<stop  offset="0.6958" style="stop-color:#000D13"/>
			<stop  offset="0.8598" style="stop-color:#000305"/>
			<stop  offset="1" style="stop-color:#000000"/>
		</radialGradient>
		<path class="st22" d="M186.53,199.73c0.19,5.77-4.93,10.64-11.42,10.87c-6.49,0.23-11.9-4.26-12.09-10.04
			c-0.19-5.77,4.93-10.64,11.42-10.87C180.94,189.46,186.35,193.96,186.53,199.73z"/>
		
			<radialGradient id="SVGID_8_" cx="397.7201" cy="316.384" r="12.8941" gradientTransform="matrix(0.9113 -0.0324 0.0261 0.8109 -183.6547 32.9937)" gradientUnits="userSpaceOnUse">
			<stop  offset="0" style="stop-color:#02689B"/>
			<stop  offset="0.1467" style="stop-color:#024F75"/>
			<stop  offset="0.3356" style="stop-color:#01334B"/>
			<stop  offset="0.5199" style="stop-color:#011D2B"/>
			<stop  offset="0.6958" style="stop-color:#000D13"/>
			<stop  offset="0.8598" style="stop-color:#000305"/>
			<stop  offset="1" style="stop-color:#000000"/>
		</radialGradient>
		<path class="st23" d="M198.8,276.24c0.19,5.77-4.93,10.64-11.42,10.87c-6.49,0.23-11.9-4.26-12.09-10.04
			c-0.19-5.77,4.93-10.64,11.42-10.87C193.2,265.97,198.62,270.46,198.8,276.24z"/>
		<g>
			<polygon class="st8" points="242.56,278.12 229.97,273.23 210.15,273.23 210.15,272.96 230.04,272.96 242.65,277.87 			"/>
		</g>
		<g>
			<polygon class="st8" points="212.14,292.33 212.13,292.05 236.42,291.6 243.64,284.61 243.82,284.81 236.53,291.87 
				236.48,291.88 			"/>
		</g>
		<g>
			<polygon class="st8" points="261.72,279.69 261.67,278.88 289.26,276.78 268.76,138.58 269.53,138.46 290.16,277.53 			"/>
		</g>
		<g>
			<path class="st13" d="M192.51,330.42c-0.2,0-0.4-0.07-0.56-0.22c-0.36-0.33-0.39-0.89-0.09-1.27l2.43-2.95l-3.15-2.99
				c-0.35-0.33-0.38-0.9-0.06-1.27c0.31-0.37,0.85-0.4,1.2-0.07l4.39,4.17l-3.52,4.28C192.99,330.32,192.75,330.42,192.51,330.42z"
				/>
		</g>
		<g>
			<path class="st13" d="M104.61,335.78c-0.18,0-0.35-0.06-0.51-0.18l-4.74-3.7l3.8-4.79c0.3-0.38,0.84-0.43,1.2-0.11
				c0.36,0.32,0.41,0.88,0.11,1.26l-2.64,3.33l3.29,2.57c0.38,0.29,0.46,0.86,0.18,1.26C105.13,335.66,104.87,335.78,104.61,335.78z
				"/>
		</g>
		<g>
			<path class="st8" d="M144.97,113.71c0.1,2-1.11,3.7-2.71,3.79s-2.97-1.46-3.07-3.47c-0.1-2,1.11-3.7,2.71-3.79
				C143.49,110.16,144.87,111.71,144.97,113.71z"/>
			<path class="st8" d="M142.3,118.38c-2.83,0.16-4.99,3.16-4.81,6.71l10.26-0.09C147.57,121.45,145.13,118.22,142.3,118.38z"/>
		</g>
		
			<radialGradient id="SVGID_9_" cx="354.6922" cy="121.9806" r="13.7471" gradientTransform="matrix(0.9113 -0.0324 0.036 1.1199 -185.1805 -10.0754)" gradientUnits="userSpaceOnUse">
			<stop  offset="0" style="stop-color:#02689B"/>
			<stop  offset="0.1467" style="stop-color:#024F75"/>
			<stop  offset="0.3356" style="stop-color:#01334B"/>
			<stop  offset="0.5199" style="stop-color:#011D2B"/>
			<stop  offset="0.6958" style="stop-color:#000D13"/>
			<stop  offset="0.8598" style="stop-color:#000305"/>
			<stop  offset="1" style="stop-color:#000000"/>
		</radialGradient>
		<path class="st24" d="M154.98,114.59c0.27,8.5-5.11,15.59-12.03,15.84c-6.92,0.25-12.75-6.45-13.02-14.95
			c-0.27-8.5,5.11-15.59,12.03-15.84C148.88,99.39,154.71,106.09,154.98,114.59z"/>
		
			<radialGradient id="SVGID_10_" cx="313.4489" cy="120.8578" r="13.7474" gradientTransform="matrix(1.2155 -0.0432 0.036 1.1199 -289.9384 -6.3675)" gradientUnits="userSpaceOnUse">
			<stop  offset="0" style="stop-color:#02689B"/>
			<stop  offset="0.1467" style="stop-color:#024F75"/>
			<stop  offset="0.3356" style="stop-color:#01334B"/>
			<stop  offset="0.5199" style="stop-color:#011D2B"/>
			<stop  offset="0.6958" style="stop-color:#000D13"/>
			<stop  offset="0.8598" style="stop-color:#000305"/>
			<stop  offset="1" style="stop-color:#000000"/>
		</radialGradient>
		<path class="st25" d="M112.13,114.83c0.27,8.5-6.99,15.66-16.22,15.99c-9.23,0.33-16.93-6.3-17.21-14.8
			c-0.27-8.5,6.99-15.66,16.22-15.99C104.15,99.7,111.86,106.33,112.13,114.83z"/>
	</g>
</g>
</svg>
